<?xml version="1.0" encoding="UTF-8" standalone="no"?>
<svg
   id="svg3240"
   height="500"
   width="430.17999"
   version="1.1"
   sodipodi:docname="Stemma_Giardina_fam_ITA.svg"
   inkscape:version="1.4.2 (f4327f4, 2025-05-13)"
   xmlns:inkscape="http://www.inkscape.org/namespaces/inkscape"
   xmlns:sodipodi="http://sodipodi.sourceforge.net/DTD/sodipodi-0.dtd"
   xmlns="http://www.w3.org/2000/svg"
   xmlns:svg="http://www.w3.org/2000/svg"
   xmlns:rdf="http://www.w3.org/1999/02/22-rdf-syntax-ns#"
   xmlns:cc="http://creativecommons.org/ns#"
   xmlns:dc="http://purl.org/dc/elements/1.1/">
  <sodipodi:namedview
     pagecolor="#ffffff"
     bordercolor="#666666"
     borderopacity="1"
     objecttolerance="10"
     gridtolerance="10"
     guidetolerance="10"
     inkscape:pageopacity="0"
     inkscape:pageshadow="2"
     inkscape:window-width="1920"
     inkscape:window-height="1017"
     id="namedview118"
     showgrid="false"
     inkscape:object-paths="true"
     inkscape:snap-intersection-paths="false"
     inkscape:snap-smooth-nodes="false"
     inkscape:zoom="0.76713046"
     inkscape:cx="204.00702"
     inkscape:cy="134.91838"
     inkscape:window-x="-8"
     inkscape:window-y="-8"
     inkscape:window-maximized="1"
     inkscape:current-layer="g1217"
     inkscape:object-nodes="true"
     inkscape:snap-midpoints="true"
     inkscape:snap-global="false"
     inkscape:snap-center="true"
     inkscape:snap-object-midpoints="true"
     inkscape:snap-others="true"
     inkscape:document-rotation="0"
     inkscape:snap-nodes="true"
     inkscape:showpageshadow="2"
     inkscape:pagecheckerboard="0"
     inkscape:deskcolor="#d1d1d1" />
  <defs
     id="defs3242">
    <rect
       x="319.74184"
       y="71.16984"
       width="121.21086"
       height="57.148846"
       id="rect2964" />
    <rect
       x="311.2156"
       y="76.930812"
       width="76.044835"
       height="25.11784"
       id="rect2958" />
    <inkscape:path-effect
       effect="bspline"
       id="path-effect2954"
       is_visible="true"
       lpeversion="1"
       weight="33.333333"
       steps="2"
       helper_size="0"
       apply_no_weight="true"
       apply_with_weight="true"
       only_selected="false" />
    <inkscape:path-effect
       effect="bspline"
       id="path-effect2950"
       is_visible="true"
       lpeversion="1"
       weight="33.333333"
       steps="2"
       helper_size="0"
       apply_no_weight="true"
       apply_with_weight="true"
       only_selected="false" />
    <inkscape:path-effect
       effect="bspline"
       id="path-effect2755"
       is_visible="true"
       lpeversion="1"
       weight="33.333333"
       steps="2"
       helper_size="0"
       apply_no_weight="true"
       apply_with_weight="true"
       only_selected="false" />
    <inkscape:path-effect
       effect="bspline"
       id="path-effect2751"
       is_visible="true"
       lpeversion="1"
       weight="33.333333"
       steps="2"
       helper_size="0"
       apply_no_weight="true"
       apply_with_weight="true"
       only_selected="false" />
    <inkscape:path-effect
       effect="bspline"
       id="path-effect2737"
       is_visible="true"
       lpeversion="1"
       weight="33.333333"
       steps="2"
       helper_size="0"
       apply_no_weight="true"
       apply_with_weight="true"
       only_selected="false" />
    <inkscape:path-effect
       effect="bspline"
       id="path-effect2730"
       is_visible="true"
       lpeversion="1"
       weight="33.333333"
       steps="2"
       helper_size="0"
       apply_no_weight="true"
       apply_with_weight="true"
       only_selected="false" />
    <clipPath
       id="clipPath6740"
       clipPathUnits="userSpaceOnUse">
      <path
         id="use6742"
         d="M 502.19305,290.03976 V 23.293814 H 290.87617"
         style="display:inline;vector-effect:none;fill:none;fill-opacity:1;stroke:#554400;stroke-width:2.08499;stroke-linecap:butt;stroke-linejoin:miter;stroke-miterlimit:4;stroke-dasharray:none;stroke-dashoffset:0;stroke-opacity:1;marker:none"
         sodipodi:nodetypes="ccc" />
    </clipPath>
    <clipPath
       id="clipPath11139"
       clipPathUnits="userSpaceOnUse">
      <path
         style="display:inline;opacity:1;vector-effect:none;fill:#ce0f25;fill-opacity:1;stroke:#800000;stroke-width:1;stroke-linecap:butt;stroke-linejoin:miter;stroke-miterlimit:4;stroke-dasharray:none;stroke-dashoffset:0;stroke-opacity:1;marker:none"
         d="m 91.33965,28.75586 v 255.88086 c 75.5514,-34.0452 134.28407,-68.6982 169.53906,-116.7168 26.67099,-36.32684 31.73007,-81.92623 33.1582,-139.16406 z"
         id="use11141" />
    </clipPath>
    <clipPath
       id="clipPath11046"
       clipPathUnits="userSpaceOnUse">
      <path
         style="display:inline;opacity:1;vector-effect:none;fill:#ce0f25;fill-opacity:1;stroke:#800000;stroke-width:1;stroke-linecap:butt;stroke-linejoin:miter;stroke-miterlimit:4;stroke-dasharray:none;stroke-dashoffset:0;stroke-opacity:1;marker:none"
         d="m 94.29863,26.316406 c -1.0759,67.807892 -1.0124,135.625894 0,203.431644 0.0865,5.79475 0.20279,11.43659 0.34179,17.00781 H 297.33965 V 26.316406 Z"
         id="use11048" />
    </clipPath>
    <clipPath
       clipPathUnits="userSpaceOnUse"
       id="clipPath1056">
      <path
         style="display:inline;fill:#0351b6;fill-opacity:1;stroke:none;stroke-width:1.04761"
         id="path1058"
         d="m -119.57677,-204.02519 c -1.12982,70.86705 -1.06314,141.74384 0,212.60865 1.02429,68.27643 4.44642,121.55692 35.180298,163.21803 37.021995,50.18497 98.69913,86.40071 178.0373,121.98187 79.338062,-35.58116 141.015222,-71.7969 178.037202,-121.98187 30.73387,-41.66111 34.15602,-94.9416 35.1803,-163.21803 1.06314,-70.86481 1.12983,-141.7416 0,-212.60865 z" />
    </clipPath>
    <inkscape:perspective
       sodipodi:type="inkscape:persp3d"
       inkscape:vp_x="0 : 526.18109 : 1"
       inkscape:vp_y="0 : 1000 : 0"
       inkscape:vp_z="744.09448 : 526.18109 : 1"
       inkscape:persp3d-origin="372.04724 : 350.78739 : 1"
       id="perspective10" />
    <clipPath
       clipPathUnits="userSpaceOnUse"
       id="clipPath5830">
      <path
         id="path5832"
         style="display:inline;fill:none;fill-opacity:1;stroke:#478b0b;stroke-width:1.04761;stroke-opacity:1"
         d="M 414.86576,181.55712 V 123.98094 C 384.53019,103.75037 348.69399,85.44629 308.25639,67.31102 v 114.2461 z" />
    </clipPath>
    <clipPath
       clipPathUnits="userSpaceOnUse"
       id="clipPath5857">
      <path
         id="path5859"
         style="fill:#1353b4;fill-opacity:1;stroke:none;stroke-width:25;stroke-linecap:square;stroke-miterlimit:4;stroke-dasharray:none;stroke-opacity:1;paint-order:markers fill stroke"
         d="m 307.61908,103.15222 h 65.46389 c 15.06635,17.48572 27.49879,41.20983 34.92352,76.79462 H 307.61908 Z"
         sodipodi:nodetypes="ccccc" />
    </clipPath>
    <clipPath
       clipPathUnits="userSpaceOnUse"
       id="clipPath5890">
      <path
         id="path5892"
         style="display:inline;fill:none;fill-opacity:1;stroke:#ce0f25;stroke-width:1.41359;stroke-opacity:1"
         d="m 396.50966,103.15321 c 23.55334,28.6266 53.40852,53.85136 88.77407,77.16635 v -77.16635 z" />
    </clipPath>
    <clipPath
       clipPathUnits="userSpaceOnUse"
       id="clipPath970">
      <rect
         style="fill:none;stroke:#816800;stroke-width:2;stroke-miterlimit:4;stroke-dasharray:none;paint-order:markers fill stroke"
         id="rect972"
         width="213.21761"
         height="230.38377"
         x="-1257.0647"
         y="-238.49159"
         transform="scale(-1)" />
    </clipPath>
    <clipPath
       clipPathUnits="userSpaceOnUse"
       id="clipPath995">
      <path
         id="path997"
         clip-path="none"
         style="display:inline;fill:#478b0b;fill-opacity:1;stroke:none;stroke-width:1.04761"
         d="M 1265.6577,247.67577 V -19.79884 c -79.3382,35.58116 -141.0151,71.7955 -178.0371,121.98047 -28.0157,37.9765 -33.3224,85.65012 -34.8203,145.49414 z" />
    </clipPath>
    <clipPath
       clipPathUnits="userSpaceOnUse"
       id="clipPath966">
      <path
         id="path968"
         style="display:inline;opacity:1;vector-effect:none;fill:#1353b4;fill-opacity:1;stroke:none;stroke-width:2;stroke-linecap:butt;stroke-linejoin:miter;stroke-miterlimit:4;stroke-dasharray:none;stroke-dashoffset:0;stroke-opacity:1"
         d="M 895.92848,226.09248 V 851.08116 C 845.02835,828.14422 799.96566,804.98881 761.88425,779.36539 V 226.09248 h 45.24522 z" />
    </clipPath>
    <clipPath
       clipPathUnits="userSpaceOnUse"
       id="clipPath974">
      <path
         d="m 400.87801,-0.47734071 c 1.36199,67.49806471 1.2816,135.00540071 0,202.50133071 -1.23477,65.03059 -5.36011,115.77815 -42.40947,155.45871 -44.6296,47.79919 -118.98071,82.29326 -214.62201,116.1829 C 48.205358,439.77596 -26.145775,405.28189 -70.775373,357.4827 -107.82472,317.80214 -111.95008,267.05458 -113.18485,202.02399 c -1.28159,-67.49593 -1.36199,-135.003266 0,-202.50133071 H 58.169439 229.52372 Z"
         id="path976"
         style="display:inline;fill:none;fill-opacity:1;stroke:#554400;stroke-width:2;stroke-miterlimit:4;stroke-dasharray:none;stroke-opacity:1"
         inkscape:connector-curvature="0" />
    </clipPath>
    <clipPath
       clipPathUnits="userSpaceOnUse"
       id="clipPath966-8">
      <path
         id="path968-5"
         style="display:inline;opacity:1;vector-effect:none;fill:#1353b4;fill-opacity:1;stroke:none;stroke-width:2;stroke-linecap:butt;stroke-linejoin:miter;stroke-miterlimit:4;stroke-dasharray:none;stroke-dashoffset:0;stroke-opacity:1"
         d="M 895.92848,226.09248 V 851.08116 C 845.02835,828.14422 799.96566,804.98881 761.88425,779.36539 V 226.09248 h 45.24522 z" />
    </clipPath>
    <clipPath
       clipPathUnits="userSpaceOnUse"
       id="clipPath974-4">
      <path
         d="m 400.87801,-0.47734071 c 1.36199,67.49806471 1.2816,135.00540071 0,202.50133071 -1.23477,65.03059 -5.36011,115.77815 -42.40947,155.45871 -44.6296,47.79919 -118.98071,82.29326 -214.62201,116.1829 C 48.205358,439.77596 -26.145775,405.28189 -70.775373,357.4827 -107.82472,317.80214 -111.95008,267.05458 -113.18485,202.02399 c -1.28159,-67.49593 -1.36199,-135.003266 0,-202.50133071 H 58.169439 229.52372 Z"
         id="path976-5"
         style="display:inline;fill:none;fill-opacity:1;stroke:#554400;stroke-width:2;stroke-miterlimit:4;stroke-dasharray:none;stroke-opacity:1"
         inkscape:connector-curvature="0" />
    </clipPath>
    <clipPath
       clipPathUnits="userSpaceOnUse"
       id="clipPath966-8-3">
      <path
         id="path968-5-6"
         style="display:inline;opacity:1;vector-effect:none;fill:#1353b4;fill-opacity:1;stroke:none;stroke-width:2;stroke-linecap:butt;stroke-linejoin:miter;stroke-miterlimit:4;stroke-dasharray:none;stroke-dashoffset:0;stroke-opacity:1"
         d="M 895.92848,226.09248 V 851.08116 C 845.02835,828.14422 799.96566,804.98881 761.88425,779.36539 V 226.09248 h 45.24522 z" />
    </clipPath>
    <clipPath
       clipPathUnits="userSpaceOnUse"
       id="clipPath974-4-7">
      <path
         d="m 400.87801,-0.47734071 c 1.36199,67.49806471 1.2816,135.00540071 0,202.50133071 -1.23477,65.03059 -5.36011,115.77815 -42.40947,155.45871 -44.6296,47.79919 -118.98071,82.29326 -214.62201,116.1829 C 48.205358,439.77596 -26.145775,405.28189 -70.775373,357.4827 -107.82472,317.80214 -111.95008,267.05458 -113.18485,202.02399 c -1.28159,-67.49593 -1.36199,-135.003266 0,-202.50133071 H 58.169439 229.52372 Z"
         id="path976-5-9"
         style="display:inline;fill:none;fill-opacity:1;stroke:#554400;stroke-width:2;stroke-miterlimit:4;stroke-dasharray:none;stroke-opacity:1"
         inkscape:connector-curvature="0" />
    </clipPath>
    <clipPath
       clipPathUnits="userSpaceOnUse"
       id="clipPath3131">
      <path
         style="display:inline;fill:none;stroke:#554400;stroke-width:2;stroke-miterlimit:4;stroke-dasharray:none"
         id="path3133"
         d="m 479.68937,-55.42355 c -1.12982,70.867052 -1.06314,141.743845 0,212.60866 1.02429,68.27643 4.44642,121.55691 35.18031,163.21803 37.02199,50.18497 98.69913,86.40071 178.0373,121.98187 79.33806,-35.58116 141.01522,-71.7969 178.0372,-121.98187 30.73386,-41.66112 34.15601,-94.9416 35.18029,-163.21803 1.06314,-70.864815 1.12983,-141.741608 0,-212.60866 H 692.90694 Z" />
    </clipPath>
    <clipPath
       clipPathUnits="userSpaceOnUse"
       id="clipPath1670">
      <path
         style="display:inline;fill:none;fill-opacity:1;stroke:#554400;stroke-width:1.9091;stroke-miterlimit:4;stroke-dasharray:none;stroke-opacity:1"
         id="path1672"
         d="m 94.401761,26.357615 c -1.129824,70.867052 -1.063142,141.743845 0,212.608655 1.024288,68.27643 4.44642,121.55692 35.180309,163.21803 37.02199,50.18497 98.69913,86.40071 178.0373,121.98187 79.33806,-35.58116 141.01522,-71.7969 178.0372,-121.98187 30.73386,-41.66111 34.15601,-94.9416 35.18029,-163.21803 1.06314,-70.86481 1.12983,-141.741603 0,-212.608655 H 307.61933 Z" />
    </clipPath>
    <clipPath
       clipPathUnits="userSpaceOnUse"
       id="clipPath19">
      <path
         style="display:inline;fill:#ffeb88;fill-opacity:1;stroke:#554400;stroke-width:0.187549;stroke-miterlimit:4;stroke-dasharray:none;stroke-opacity:1"
         id="path20"
         d="m 1.1007289,53.226652 c -0.19185642,5.215543 -0.24077052,10.43219 -0.17062433,15.648279 0.0675819,5.025567 0.43367703,8.948191 4.07213163,12.024462 4.3828759,3.705676 11.7226018,6.391187 21.1728648,9.035714 9.507359,-2.593114 16.905215,-5.238657 21.368641,-8.920341 3.705319,-3.056355 4.156935,-6.976761 4.334103,-12.001665 0.183887,-5.215399 0.248737,-10.432004 0.170624,-15.648279 L 26.5746,53.295737 Z" />
    </clipPath>
    <clipPath
       clipPathUnits="userSpaceOnUse"
       id="clipPath20">
      <path
         style="display:inline;fill:#ffeb88;fill-opacity:1;stroke:#554400;stroke-width:0.216372;stroke-miterlimit:4;stroke-dasharray:none;stroke-opacity:1"
         id="path21"
         d="m -12.080457,46.244212 c -0.203793,6.535183 -0.255751,13.071751 -0.18124,19.607618 0.07179,6.297141 0.460659,11.21227 4.3254853,15.066901 4.6555634,4.643289 12.4519424,8.00829 22.4901677,11.321937 10.098875,-3.249226 17.957,-6.564145 22.698124,-11.177373 3.935852,-3.829676 4.415566,-8.742026 4.603757,-15.038335 0.195327,-6.535003 0.264211,-13.071517 0.181239,-19.607618 l -27.058765,-0.08657 z" />
    </clipPath>
    <clipPath
       clipPathUnits="userSpaceOnUse"
       id="clipPath21">
      <path
         style="display:inline;fill:#ffeb88;fill-opacity:1;stroke:#554400;stroke-width:0.216372;stroke-miterlimit:4;stroke-dasharray:none;stroke-opacity:1"
         id="path22"
         d="m 11.804254,46.320627 c -0.203793,6.535184 -0.255751,13.071751 -0.18124,19.607619 0.07179,6.29714 0.460659,11.212269 4.325485,15.066901 4.655564,4.643289 12.451943,8.008289 22.490168,11.321937 10.098875,-3.249226 17.957,-6.564146 22.698124,-11.177373 3.935852,-3.829676 4.415566,-8.742026 4.603757,-15.038335 0.195327,-6.535004 0.264212,-13.071518 0.18124,-19.607619 l -27.058766,-0.08657 z" />
    </clipPath>
  </defs>
  <metadata
     id="metadata3245">
    <rdf:RDF>
      <cc:Work
         rdf:about="">
        <dc:format>image/svg+xml</dc:format>
        <dc:type
           rdf:resource="http://purl.org/dc/dcmitype/StillImage" />
      </cc:Work>
    </rdf:RDF>
  </metadata>
  <g
     id="layer1"
     transform="matrix(-1,0,0,1,522.70953,-25.3125)">
    <g
       id="g1217">
      <path
         style="display:inline;fill:#ffffff;fill-opacity:1;stroke:#574603;stroke-width:2;stroke-miterlimit:4;stroke-dasharray:none;stroke-opacity:1"
         id="path12506"
         d="m 520.83686,26.357615 c 1.12982,70.867052 1.06314,141.743845 0,212.608655 -1.02429,68.27643 -4.44642,121.55692 -35.18031,163.21803 -37.02199,50.18497 -98.69913,86.40071 -178.0373,121.98187 C 228.28119,488.58501 166.60404,452.36927 129.58205,402.1843 98.848189,360.52319 95.426039,307.2427 94.401759,238.96627 c -1.06313,-70.86481 -1.12983,-141.741603 0,-212.608655 H 307.6193 Z" />
      <path
         style="display:inline;fill:none;fill-opacity:1;stroke:#554400;stroke-width:2;stroke-miterlimit:4;stroke-dasharray:none;stroke-opacity:1"
         id="path23"
         d="m 520.83686,26.357615 c 1.12982,70.867052 1.06314,141.743845 0,212.608655 -1.02429,68.27643 -4.44642,121.55692 -35.18031,163.21803 -37.02199,50.18497 -98.69913,86.40071 -178.0373,121.98187 C 228.28119,488.58501 166.60404,452.36927 129.58205,402.1843 98.848189,360.52319 95.426039,307.2427 94.401759,238.96627 c -1.06313,-70.86481 -1.12983,-141.741603 0,-212.608655 H 307.6193 Z" />
      <g
         id="g43358"
         transform="matrix(-4.982688,0,0,3.7298922,3788.0106,-2848.4382)">
        <g
           id="g43200">
          <path
             id="path43126"
             class="cls-43"
             d="m 598.15,845.75 c -0.86,0 -1.59,3.79 -3.11,3.16 0,2.45 -2,2.14 -0.72,16.8 -0.55,5.8 -0.25,10.61 -0.93,21.22 -0.23,0.58 -0.5,1.19 -0.78,1.78 v 0 c -0.38,0.69 -2.62,4.65 -4.07,5.54 4.25,1 4,-1.3 5.17,3.42 -1.3,2.45 3.26,2.58 3,0 0.49,-3.54 3.31,2 4.23,0.19 -0.64,-7.57 0.93,-3.84 2.67,-1.78 3.21,0.66 0.57,-3.85 -0.59,-4.58 a 5.57,5.57 0 0 1 -2.13,-2.68 c -0.19,-0.45 -0.38,-0.92 -0.57,-1.43 -0.35,-7.33 -1,-13.58 -0.62,-20.76 1,-5 0.83,-8.37 -1,-20.45 -0.17,-0.31 -0.34,-0.43 -0.5,-0.43 z"
             transform="translate(101.56,-11.98)"
             style="fill:#548630;fill-opacity:1;fill-rule:evenodd;stroke:#2a4a16;stroke-linecap:round;stroke-linejoin:round;stroke-opacity:1" />
          <path
             id="path43128"
             class="cls-43"
             d="m 594.17,857.35 c -2.89,-3.09 -2,-3.62 -3.21,-6.65 -0.23,-0.58 -2.3,-3.31 -2.55,-3.92 -0.5,-1.2 -0.5,-1.21 -1.33,-1.56 -0.83,-0.35 -2.07,0.51 -2,0.17 0.07,-0.34 1.22,-1.95 2,-2.11 0.78,-0.16 1,0.87 0.76,-0.06 a 4.4,4.4 0 0 0 -1.47,-2.63 c -1,-0.9 -1.13,-0.08 -2,0.52 -0.87,0.6 -0.89,1.39 -1.58,1.87 -0.69,0.48 -1.15,0.43 -1.16,0.08 a 4.12,4.12 0 0 0 2.05,-2.2 c 0.61,-0.72 1.49,-1.46 1.49,-2.14 a 2.61,2.61 0 0 0 -1.58,-2.16 c -0.9,-0.26 -1.09,0.31 -1.81,0.38 -0.72,0.07 -1.16,1 -1.12,0.61 0.04,-0.39 0.36,-0.79 1.1,-1.33 0.74,-0.54 1.69,-0.19 1.86,-0.81 0.17,-0.62 -0.47,-1 -1.18,-1.67 -0.71,-0.67 -0.93,-1.15 -1.65,-1.12 -0.72,0.03 -0.69,0.09 -1.23,1.24 -0.54,1.15 -0.44,2.13 -0.91,3.36 -0.47,1.23 -1.18,2.62 -1.66,1.16 0.78,-0.42 1.16,-0.24 1.49,-2 a 17.9,17.9 0 0 0 0.53,-3.81 c 0.05,-0.7 0,-0.34 -0.5,-0.34 -0.5,0 -0.69,0.79 -1.54,0.34 a 5,5 0 0 1 -1.88,-2.15 c -0.05,-0.33 1.38,1.49 2.18,1.51 0.8,0.02 0.46,-1.18 1,-1.41 0.54,-0.23 0.84,0.35 0.71,-0.21 a 12.26,12.26 0 0 0 -1.21,-2 c -0.5,-0.9 -0.4,-0.27 -0.78,-1.57 -0.38,-1.3 -1.17,-3.86 -0.77,-3.63 0.4,0.23 0.84,3 1.71,4.46 0.87,1.46 1.11,1 1.75,1.35 0.64,0.35 1.39,1.16 1.47,0.31 0.08,-0.85 -0.59,-2.23 -1.08,-4.43 -0.49,-2.2 -1.12,-4.47 -0.89,-4.36 0.23,0.11 0.59,2.7 1.72,5.5 a 37.47,37.47 0 0 0 2.59,5.32 c 0.92,1.71 1,2.23 1.1,1.51 a 14.31,14.31 0 0 0 -0.52,-4 c -0.45,-2 -1.38,-4.09 -1.26,-4.14 a 13.38,13.38 0 0 1 1.75,4 c 0.69,2.2 0.44,2.76 1,4.82 a 15.85,15.85 0 0 0 1.2,3.41 c 0.5,1.16 0.67,1.46 0.81,1.25 a 4,4 0 0 0 0.25,-2.23 c -0.09,-1.36 -0.4,-1.77 -0.61,-3.21 a 12,12 0 0 0 -0.69,-2.38 11,11 0 0 1 1.28,3.3 c 0.5,2.07 0.24,2.72 0.75,5 0.51,2.28 0.88,2.37 1.25,4.14 0.18,0.88 2.51,3.63 2.74,4.08 0.23,0.45 0.58,0.88 2.72,3.13"
             transform="translate(101.56,-11.98)"
             style="fill:#548630;fill-opacity:1;fill-rule:evenodd;stroke:#2a4a16;stroke-linecap:round;stroke-linejoin:round;stroke-opacity:1" />
          <path
             id="path43130"
             class="cls-43"
             d="m 600.36,854.61 c 3.06,-2 1.77,-5.74 3.15,-8.1 0.26,-0.45 2.48,-2.32 2.76,-2.79 0.56,-0.93 0.56,-0.94 1.42,-1 0.86,-0.06 2.06,1 2,0.67 -0.06,-0.33 -1.36,-1.17 -2.2,-1.54 -0.84,-0.37 -1.41,0.84 -1.14,0.07 0.27,-0.77 1.16,-2.59 2.22,-3.12 1.06,-0.53 1.15,0.23 2,1 0.85,0.77 0.82,1.46 1.49,2.07 0.67,0.61 1.15,0.68 1.18,0.37 a 5.12,5.12 0 0 1 -2,-2.48 c -0.57,-0.79 -1.43,-1.67 -1.4,-2.28 a 1.81,1.81 0 0 1 1.7,-1.49 c 0.92,0 1.08,0.56 1.81,0.81 0.73,0.25 1.12,1.17 1.1,0.84 -0.02,-0.33 -0.33,-0.8 -1,-1.47 -0.67,-0.67 -1.7,-0.61 -1.84,-1.2 -0.14,-0.59 0.53,-0.74 1.27,-1.17 0.74,-0.43 1,-0.77 1.72,-0.56 0.72,0.21 0.7,0.27 1.18,1.42 0.48,1.15 0.34,2 0.76,3.21 0.42,1.21 1.06,2.63 1.61,1.46 -0.76,-0.58 -1.15,-0.52 -1.4,-2.11 a 15.51,15.51 0 0 1 -0.36,-3.5 c 0,-0.64 0,-0.31 0.53,-0.18 0.53,0.13 0.65,0.88 1.54,0.71 a 3.62,3.62 0 0 0 2,-1.4 c 0.07,-0.29 -1.47,0.94 -2.28,0.76 -0.81,-0.18 -0.4,-1.17 -1,-1.52 -0.6,-0.35 -0.86,0.09 -0.7,-0.37 0.16,-0.46 0.77,-0.82 1.32,-1.48 0.55,-0.66 0.41,-0.14 0.86,-1.18 0.45,-1.04 1.36,-3.11 0.95,-3 -0.41,0.11 -1,2.44 -1.93,3.5 -0.93,1.06 -1.18,0.55 -1.84,0.72 -0.66,0.17 -1.46,0.66 -1.5,-0.11 -0.04,-0.77 0.71,-1.81 1.31,-3.62 0.6,-1.81 1.34,-3.66 1.11,-3.63 -0.23,0.03 -0.73,2.23 -2,4.41 a 25.23,25.23 0 0 1 -2.87,4 c -1,1.27 -1.12,1.7 -1.18,1.05 a 9.87,9.87 0 0 1 0.72,-3.39 c 0.54,-1.68 1.58,-3.26 1.46,-3.33 a 8.71,8.71 0 0 0 -2,3 c -0.79,1.76 -0.57,2.33 -1.21,4 a 11.08,11.08 0 0 1 -1.37,2.7 c -0.57,0.89 -0.76,1.11 -0.89,0.89 a 3.52,3.52 0 0 1 -0.14,-2 24.13,24.13 0 0 1 0.76,-2.68 7.78,7.78 0 0 1 0.82,-1.92 6.8,6.8 0 0 0 -1.45,2.57 c -0.61,1.7 -0.38,2.34 -1,4.23 -0.62,1.89 -1,1.87 -1.47,3.33 -0.23,0.73 -2.71,2.55 -3,2.89 -0.13,0.17 -1.06,6.22 -3.46,8.18 -2.86,1.46 -2,2.59 -2.38,3.88"
             transform="translate(101.56,-11.98)"
             style="fill:#548630;fill-opacity:1;fill-rule:evenodd;stroke:#2a4a16;stroke-linecap:round;stroke-linejoin:round;stroke-opacity:1" />
          <path
             id="path43132"
             class="cls-44"
             d="m 594.72,858.48 -0.13,-3.06 c -1.81,-1.39 -2.16,-2.79 -2.91,-5 l -3.46,-5.59 0.58,-1.79 2.91,4.33 c 0.66,2.22 1.51,2.59 3.81,3.71 l -0.12,4.33 1.49,0.13 c 0.32,-0.47 -0.76,1.23 0.13,-1.3 0.14,-0.38 -0.12,-1.65 0.55,-1.67 1.22,0 2.95,-2.76 3.25,-2 l 1.81,-6.56 2.83,-2.09 c -0.13,0.56 -2.73,3.52 -2.82,4.09 -0.35,2.33 -0.45,4.66 -1.75,7 l -1.76,0.52 c 0,3.82 0.91,7.63 -0.21,11.45 0.94,8.31 -2.41,17 1.47,25.17 0.52,1.09 2,2.45 2.78,3.5 l -0.13,0.54 c -1.24,-1.7 -3.5,-3.09 -3,-1.81 l -0.36,4.22 c -0.36,-0.36 -0.62,-1.6 -1.45,-2.63 l -1.28,0.54 -1.45,2.83 a 3,3 0 0 1 -0.68,-2.08 l -0.66,-1.44 -1,-0.62 -1.9,-0.49 3.06,-5.79 0.23,-17.17 0.29,-3.83 -0.19,-3.23 z"
             transform="translate(101.56,-11.98)"
             style="fill:#5e9436;fill-opacity:1;fill-rule:evenodd" />
          <path
             id="path43134"
             class="cls-43"
             d="m 595.3,849.78 c -1,-4.9 -0.53,-2.64 -1.28,-6.36 -0.15,-0.71 -1.74,-4.8 -1.89,-5.55 a 4.09,4.09 0 0 0 -1,-2.45 c -0.73,-1 -2,-1.13 -1.89,-1.39 0.11,-0.26 1.42,0.24 2.23,0.74 0.81,0.5 1.08,2.26 1,1.23 a 17.47,17.47 0 0 0 -1.35,-5.32 c -0.83,-1.6 -1,-0.95 -2,-1.1 -1,-0.15 -1,0.59 -1.71,0.51 -0.71,-0.08 -1.14,-0.51 -1.1,-0.84 1,0.24 1.53,0.28 2.2,-0.43 0.66,-0.18 1.58,-0.18 1.67,-0.8 a 5.44,5.44 0 0 0 -1.21,-3.2 c -0.8,-0.92 -1.05,-0.55 -1.74,-1.05 -0.69,-0.5 -1.21,0 -1.12,-0.3 0.09,-0.3 0.43,-0.44 1.19,-0.36 0.76,0.08 1.61,1.13 1.85,0.7 0.24,-0.43 -0.32,-1.26 -0.89,-2.44 -0.57,-1.18 -0.73,-1.77 -1.4,-2.3 -0.67,-0.53 -0.66,-0.45 -1.31,0.18 -0.65,0.63 -0.68,1.61 -1.29,2.37 -0.61,0.76 -1.43,1.49 -1.69,-0.22 0.78,0.21 1.11,0.67 1.64,-0.64 a 11,11 0 0 0 1,-3.06 c 0.13,-0.61 0.05,-0.31 -0.43,-0.71 -0.48,-0.4 -0.74,0.2 -1.48,-0.87 a 11.9,11.9 0 0 1 -1.49,-3.42 c 0,-0.34 1.11,2.43 1.86,3.07 0.75,0.64 0.57,-0.73 1.12,-0.51 0.55,0.22 0.74,1 0.69,0.35 a 25,25 0 0 0 -0.87,-2.79 6.64,6.64 0 0 1 -0.54,-2 c -0.19,-1.49 -0.59,-4.43 -0.25,-3.91 0.34,0.52 0.4,3.4 1,5.39 a 5.55,5.55 0 0 0 1.47,2.59 c 0.55,0.85 1.15,2.13 1.33,1.41 0.18,-0.72 -0.27,-2.49 -0.45,-4.88 -0.18,-2.39 -0.47,-5 -0.27,-4.67 0.2,0.33 0.21,2.92 0.9,6.35 a 69.14,69.14 0 0 0 1.75,6.86 c 0.64,2.27 0.65,2.81 0.83,2.23 a 14.55,14.55 0 0 0 0,-4 c -0.16,-2.2 -0.77,-4.81 -0.65,-4.75 a 23.36,23.36 0 0 1 1.14,5 c 0.35,2.53 0,2.85 0.29,5.15 a 25.84,25.84 0 0 0 0.69,4 c 0.32,1.45 0.45,1.85 0.61,1.77 0.16,-0.08 0.42,-0.53 0.51,-1.84 0.09,-1.31 -0.15,-1.94 -0.16,-3.41 a 14.33,14.33 0 0 0 -0.35,-2.7 17.2,17.2 0 0 1 0.78,4 c 0.21,2.29 -0.12,2.68 0.06,5.16 0.18,2.48 0.53,2.85 0.65,4.75 0.06,1 1.88,5.26 2,5.85 0.12,0.59 -0.52,3.86 1.19,7.56"
             transform="translate(101.56,-11.98)"
             style="fill:#548630;fill-opacity:1;fill-rule:evenodd;stroke:#2a4a16;stroke-linecap:round;stroke-linejoin:round;stroke-opacity:1" />
          <path
             id="path43136"
             class="cls-43"
             d="m 599.21,849.75 c 1.27,-7.06 -0.05,-6.39 0,-10.61 0,-0.81 0.77,-6.24 0.79,-7.09 a 8.1,8.1 0 0 1 0.54,-3.36 c 0.52,-1.65 1.68,-3.11 1.53,-3.23 -0.15,-0.12 -1.29,1.69 -2,3 -0.71,1.31 -0.62,3.21 -0.71,2.17 a 25,25 0 0 1 0.32,-6.33 c 0.5,-2.34 0.82,-2 1.65,-3 0.83,-1 1.05,-0.49 1.69,-1.29 A 3.17,3.17 0 0 0 604,818 c -0.85,1.21 -1.38,1.83 -2.13,1.87 -0.65,0.51 -1.51,1.46 -1.7,1 a 9.3,9.3 0 0 1 0.57,-4.21 14.48,14.48 0 0 1 1.44,-2.77 c 0.55,-1.17 1.13,-1.25 1,-1.44 -0.13,-0.19 -0.49,0 -1.19,0.9 -0.7,0.9 -1.3,2.71 -1.6,2.55 -0.3,-0.16 0.08,-1.49 0.41,-3.18 a 13.91,13.91 0 0 1 0.9,-3.58 c 0.54,-1.19 0.54,-1.1 1.26,-1.17 0.72,-0.07 0.92,0.78 1.62,0.87 0.7,0.09 1.59,-0.1 1.54,-2 -0.69,1 -0.92,1.76 -1.64,1.09 -0.58,-0.14 -1.23,-1.39 -1.46,-1.82 -0.23,-0.43 -0.1,-0.24 0.28,-1.1 0.38,-0.86 0.72,-0.58 1.23,-2.34 a 22.05,22.05 0 0 0 0.79,-4.7 c -0.06,-0.32 -0.61,3.4 -1.19,4.76 -0.58,1.36 -0.67,-0.08 -1.15,0.68 -0.48,0.76 -0.51,1.65 -0.58,1 -0.07,-0.65 0.21,-2 0.33,-3.49 a 9.75,9.75 0 0 0 0.14,-2.44 c -0.08,-1.58 -0.22,-4.73 -0.45,-3.89 -0.23,0.84 0.22,3.57 0,6.06 a 13.32,13.32 0 0 1 -0.93,3.91 c -0.36,1.36 -0.7,3.17 -1,2.69 -0.3,-0.48 -0.18,-2.59 -0.43,-5 -0.25,-2.41 -0.43,-5.07 -0.56,-4.61 -0.13,0.46 0.31,2.92 0.26,6.82 -0.05,3.9 -0.22,5.38 -0.42,8.16 -0.2,2.78 -0.12,3.28 -0.39,2.93 -0.27,-0.35 -0.49,-1.53 -0.74,-3.73 -0.25,-2.2 -0.12,-5.25 -0.23,-5.07 a 34.48,34.48 0 0 0 -0.18,5.78 c 0.11,2.71 0.45,2.7 0.62,5.08 a 29.77,29.77 0 0 1 0.07,4.45 c -0.05,1.68 -0.09,2.18 -0.25,2.27 -0.16,0.09 -0.5,-0.05 -0.81,-1.17 -0.31,-1.12 -0.2,-2 -0.45,-3.33 a 18.44,18.44 0 0 1 -0.15,-2.87 23.58,23.58 0 0 0 0,4.51 c 0.2,2.33 0.57,2.36 0.84,4.84 0.27,2.48 0,3.18 0.23,5.07 0.11,0.94 -0.84,6.82 -0.88,7.54 a 31.82,31.82 0 0 1 -0.06,9.7"
             transform="translate(101.56,-11.98)"
             style="fill:#548630;fill-opacity:1;fill-rule:evenodd;stroke:#2a4a16;stroke-linecap:round;stroke-linejoin:round;stroke-opacity:1" />
          <path
             id="path43138"
             class="cls-45"
             d="m 598.12,863.79 0.25,1.59 v 6.18 l 0.22,18.17 -0.55,0.32 v -13.48 l -0.28,-3.7 z"
             transform="translate(101.56,-11.98)"
             style="fill:#5e9436;fill-opacity:1;fill-rule:evenodd" />
          <path
             id="path43140"
             class="cls-45"
             d="m 595.78,891.1 0.88,0.54 0.16,-3.32 v -9.85 l -0.46,-10.47 -0.51,-5.45 v 0 l 0.14,10.4 -0.17,14.21 z"
             transform="translate(101.56,-11.98)"
             style="fill:#5e9436;fill-opacity:1;fill-rule:evenodd" />
          <g
             id="g43198">
            <path
               id="path43142"
               class="cls-46"
               d="m 596.68,800.24 c -0.53,-1.23 -0.74,-0.31 -2.17,0"
               transform="translate(101.56,-11.98)"
               style="fill:none;stroke:#007d00;stroke-linecap:square;stroke-linejoin:round" />
            <path
               id="path43144"
               class="cls-46"
               d="m 610.6,816.17 c -0.54,-1.23 -0.74,-0.31 -2.18,0"
               transform="translate(101.56,-11.98)"
               style="fill:none;stroke:#007d00;stroke-linecap:square;stroke-linejoin:round" />
            <path
               id="path43146"
               class="cls-46"
               d="m 590.71,815.8 c -0.53,-1.23 -0.74,-0.31 -2.17,0"
               transform="translate(101.56,-11.98)"
               style="fill:none;stroke:#007d00;stroke-linecap:square;stroke-linejoin:round" />
            <path
               id="path43148"
               class="cls-46"
               d="m 589.78,833.51 c -0.54,1.23 -0.75,0.3 -2.18,0"
               transform="translate(101.56,-11.98)"
               style="fill:none;stroke:#007d00;stroke-linecap:square;stroke-linejoin:round" />
            <path
               id="path43150"
               class="cls-46"
               d="m 586.81,827 c -0.53,-1.23 -0.74,-0.3 -2.17,0"
               transform="translate(101.56,-11.98)"
               style="fill:none;stroke:#007d00;stroke-linecap:square;stroke-linejoin:round" />
            <path
               id="path43152"
               class="cls-46"
               d="m 605.71,832.1 c -0.53,-1.23 -0.74,-0.31 -2.17,-0.05"
               transform="translate(101.56,-11.98)"
               style="fill:none;stroke:#007d00;stroke-linecap:square;stroke-linejoin:round" />
            <path
               id="path43154"
               class="cls-46"
               d="m 584.4,843.58 c -0.54,-1.23 -0.75,-0.31 -2.18,-0.05"
               transform="translate(101.56,-11.98)"
               style="fill:none;stroke:#007d00;stroke-linecap:square;stroke-linejoin:round" />
            <path
               id="path43156"
               class="cls-46"
               d="m 581.58,829.78 c -0.53,-1.23 -0.74,-0.3 -2.17,0"
               transform="translate(101.56,-11.98)"
               style="fill:none;stroke:#007d00;stroke-linecap:square;stroke-linejoin:round" />
            <path
               id="path43158"
               class="cls-46"
               d="m 581.44,821.45 c -0.54,-1.23 -0.75,-0.31 -2.18,-0.05"
               transform="translate(101.56,-11.98)"
               style="fill:none;stroke:#007d00;stroke-linecap:square;stroke-linejoin:round" />
            <path
               id="path43160"
               class="cls-46"
               d="m 578.38,826.26 c -0.54,-1.23 -0.75,-0.3 -2.18,0"
               transform="translate(101.56,-11.98)"
               style="fill:none;stroke:#007d00;stroke-linecap:square;stroke-linejoin:round" />
            <path
               id="path43162"
               class="cls-46"
               d="m 577.14,835.15 c -0.53,-1.23 -0.74,-0.3 -2.17,0"
               transform="translate(101.56,-11.98)"
               style="fill:none;stroke:#007d00;stroke-linecap:square;stroke-linejoin:round" />
            <path
               id="path43164"
               class="cls-46"
               d="m 610.13,822.17 c -0.54,1.23 -0.74,0.3 -2.18,0.05"
               transform="translate(101.56,-11.98)"
               style="fill:none;stroke:#007d00;stroke-linecap:square;stroke-linejoin:round" />
            <path
               id="path43166"
               class="cls-46"
               d="m 608.14,800.94 c -0.54,-1.23 -0.74,-0.3 -2.18,-0.05"
               transform="translate(101.56,-11.98)"
               style="fill:none;stroke:#007d00;stroke-linecap:square;stroke-linejoin:round" />
            <path
               id="path43168"
               class="cls-46"
               d="m 592.43,800.09 c -0.53,-1.23 -0.74,-0.31 -2.17,-0.05"
               transform="translate(101.56,-11.98)"
               style="fill:none;stroke:#007d00;stroke-linecap:square;stroke-linejoin:round" />
            <path
               id="path43170"
               class="cls-46"
               d="m 610.69,827.2 c 2,-2.4 0.94,-0.07 2.38,0.18"
               transform="translate(101.56,-11.98)"
               style="fill:none;stroke:#007d00;stroke-linecap:square;stroke-linejoin:round" />
            <path
               id="path43172"
               class="cls-46"
               d="m 580.43,841.82 c -0.47,0.28 0.14,0.34 -0.43,0.47 -0.57,0.13 1.09,2 0.46,1.92 m 2.13,-13 c 1.37,-1.79 2.07,0.32 2.81,0.15"
               transform="translate(101.56,-11.98)"
               style="fill:none;stroke:#007d00;stroke-linecap:square;stroke-linejoin:round" />
            <path
               id="path43174"
               class="cls-46"
               d="m 594,829.71 c 0.44,-0.82 0.13,-1.32 0.58,-1.33 0.69,-1.2 0.19,-2.64 1.06,-1.83 m 10.12,-1 c 2,-2.41 0.06,0.62 1.49,0.88"
               transform="translate(101.56,-11.98)"
               style="fill:none;stroke:#007d00;stroke-linecap:square;stroke-linejoin:round" />
            <path
               id="path43176"
               class="cls-46"
               d="m 584.56,838.51 c 2,-2.41 0.42,-1 1.86,-0.71"
               transform="translate(101.56,-11.98)"
               style="fill:none;stroke:#007d00;stroke-linecap:square;stroke-linejoin:round" />
            <path
               id="path43178"
               class="cls-46"
               d="m 582.2,826.91 c 0.35,-4.6 1.11,-2.08 1.87,-3.28"
               transform="translate(101.56,-11.98)"
               style="fill:none;stroke:#007d00;stroke-linecap:square;stroke-linejoin:round" />
            <path
               id="path43180"
               class="cls-46"
               d="m 596.7,820.68 c -0.35,-4.6 -0.72,-1.27 -1.48,-2.47 m 0,-5.11 a 2,2 0 0 0 -1.75,-0.93"
               transform="translate(101.56,-11.98)"
               style="fill:none;stroke:#007d00;stroke-linecap:square;stroke-linejoin:round" />
            <path
               id="path43182"
               class="cls-46"
               d="m 612.6,807.57 c 0.55,1 0.48,0.14 0.54,0.95 m -11.5,-0.93 c 0.69,-1.19 0.69,-2 1.56,-1.23"
               transform="translate(101.56,-11.98)"
               style="fill:none;stroke:#007d00;stroke-linecap:square;stroke-linejoin:round" />
            <path
               id="path43184"
               class="cls-46"
               d="m 611.85,845.53 c 2,-2.41 0.42,-1 1.86,-0.71"
               transform="translate(101.56,-11.98)"
               style="fill:none;stroke:#007d00;stroke-linecap:square;stroke-linejoin:round" />
            <path
               id="path43186"
               class="cls-46"
               d="m 612.37,813.29 c 2,-2.41 0.43,-1 1.87,-0.71"
               transform="translate(101.56,-11.98)"
               style="fill:none;stroke:#007d00;stroke-linecap:square;stroke-linejoin:round" />
            <g
               id="g43196">
              <path
                 id="path43188"
                 class="cls-47"
                 d="M 597.81,871.54 597.3,858.27"
                 transform="translate(101.56,-11.98)"
                 style="fill:none;stroke:#50802e;stroke-linecap:round;stroke-linejoin:round;stroke-opacity:1" />
              <path
                 id="path43190"
                 class="cls-47"
                 d="m 595.27,890.68 c 0.09,-3.42 0.25,-15.11 0.21,-18.65 0,-3.1 -0.29,-11.14 0.08,-15.27"
                 transform="translate(101.56,-11.98)"
                 style="fill:none;stroke:#50802e;stroke-linecap:round;stroke-linejoin:round;stroke-opacity:1" />
              <path
                 id="path43192"
                 class="cls-47"
                 d="m 599,889.34 c 0,-4.94 -0.14,-14.31 -0.29,-23.12 -0.09,-5.17 -0.38,-10.18 0,-13.91"
                 transform="translate(101.56,-11.98)"
                 style="fill:none;stroke:#50802e;stroke-linecap:round;stroke-linejoin:round;stroke-opacity:1" />
              <path
                 id="path43194"
                 class="cls-47"
                 d="m 597.32,891.78 a 171.89,171.89 0 0 0 -0.6,-26.9 c -0.15,-1.69 -0.73,-5.11 -0.35,-7.68"
                 transform="translate(101.56,-11.98)"
                 style="fill:none;stroke:#50802e;stroke-linecap:round;stroke-linejoin:round;stroke-opacity:1" />
            </g>
          </g>
        </g>
        <g
           id="g43356">
          <g
             id="g43226">
            <path
               id="path43202"
               class="cls-48"
               d="m 574.8,808.1 c -1.41,-5 -1,-7.54 0.8,-8.68 l 2.14,2.05 c 0.6,-5.55 2.6,-3 3.92,-4.49 3,-4.83 4.29,-0.51 6.43,-0.76 a 2.42,2.42 0 0 1 2.31,-0.91 c 1.21,-1.44 2.55,-1.86 4.06,-0.89 a 4.89,4.89 0 0 0 3.92,0.71 16.43,16.43 0 0 1 3,-0.45 c 3.45,-2.89 5.17,0 7.66,0.3 l 1.79,1.94 c 4.28,-1.74 3.19,1.89 3,3.29 1,0.93 2.86,-0.11 2.92,3.14 -0.35,2.47 1.08,4.61 2.18,6.81 0.85,0.75 2.57,1.83 2.23,4.78 -0.15,1.3 2.13,1.15 2.42,2.74 0.35,1.93 1.73,4.58 0.13,7.38 l 0.77,2.4 c -0.13,2.34 -1.17,3.56 -1.57,5.5 0.89,2.2 0.54,6.27 -2,5.11 -0.16,0.44 -0.63,0.89 -0.49,1.38 1.65,5.56 -1.41,3.86 -2.32,5.52 a 10.13,10.13 0 0 1 -2,2.62 c -1.15,1 -1.07,0.24 -0.91,-1 0.11,-0.79 -0.34,-1 -1.39,-0.26 -1.45,1 0,-0.83 -0.58,-0.34 -1.62,1.75 -2,1.48 -3.27,-0.33 a 6.33,6.33 0 0 1 -1.11,-5.48 c -2,0.16 -3,-0.66 -3.52,-1.92 a 3,3 0 0 0 -0.74,-3.2 c -0.52,-2.13 -1.74,-1.84 -2.89,-1.77 -3.69,-0.63 -3.51,-1.25 -4,-3.2 -0.77,0.57 -1.93,-0.25 -2.67,0.92 -0.46,0.74 0.12,1.67 -0.43,2.21 -0.55,0.54 -1.53,-0.56 -1.91,0 -0.49,0.68 -0.4,2.37 -0.84,2.9 -0.79,0.94 -1.93,-0.37 -2.12,0.79 -0.19,1.16 -0.61,2 -0.74,3.08 a 4.83,4.83 0 0 1 -1,2.76 14.17,14.17 0 0 1 -1.64,2.11 12.48,12.48 0 0 1 -2.64,1.08 c -0.81,0.34 -2.35,-1 -3.33,-0.85 -0.98,0.15 -1.25,1.81 -2.34,1.78 -3.3,-0.1 -3.56,0.15 -4.26,-0.36 l -0.49,-3.93 c -5,-4 -0.81,-6.58 -1.22,-9.87 1.33,-1 1.41,-2 -0.34,-2.81 -2.72,-2.38 -2.06,-5.82 -1.08,-8.73 -0.56,-2.92 1.29,0.57 0.74,-1.4 -0.38,-1.38 -0.87,-3.21 -1.28,-5 -0.47,-2 0,-2 -0.08,-3 -0.1,-2.22 1.16,-2 1.83,-2.23 0.67,-0.23 0.77,-0.74 1.91,1.13 z"
               transform="translate(101.56,-11.98)"
               style="fill:#548630;fill-opacity:1;fill-rule:evenodd;stroke:#2a4a16;stroke-linecap:square;stroke-linejoin:round;stroke-opacity:1" />
            <path
               id="path43204"
               class="cls-49"
               d="m 576.85,807.36 c -1.39,-4.4 -2.21,-2.84 -0.46,-3.88 l 3.13,0.61 c 0.53,-5 2.14,-3.28 3.38,-4.6 2.82,-4.35 3.27,-0.51 5.32,-0.76 a 7.19,7.19 0 0 1 3.67,-1.81 c 1.14,-1.3 2.08,-0.63 3.54,0.22 a 6.37,6.37 0 0 0 4.16,1.12 25.32,25.32 0 0 1 3.48,-0.54 c 3.27,-2.63 3.79,0.79 6.17,1 l 1.65,2.46 c 4.07,-1.61 0.85,0.14 0.73,1.39 1,0.82 3.71,-0.35 3.8,2.56 a 9.07,9.07 0 0 0 1.4,5.94 c 0.81,0.66 1.94,1 1.6,3.59 -0.45,3.41 1,2.29 1.59,3.6 0.73,1.51 3.57,2.13 2.06,4.65 l 0.27,3.32 c -0.11,2.09 -0.68,-0.25 -1.05,1.49 0.87,2 1.07,9.26 -1.33,8.25 -1.13,-0.46 -1.58,-0.16 -1.44,0.27 1.62,4.94 1,2 0.11,3.45 a 8.82,8.82 0 0 1 -1.85,2.36 c -1.08,0.9 -1,0.23 -0.87,-0.89 0.1,-0.7 -0.33,-0.86 -1.33,-0.2 -1.38,0.91 0,-0.75 -0.55,-0.3 -1.54,1.58 -1.91,1.34 -3.14,-0.26 a 5.37,5.37 0 0 1 -1.1,-4.87 c -1.94,0.17 -2.87,-0.56 -3.37,-1.67 A 2.54,2.54 0 0 0 605.68,831 c -0.51,-1.89 -1.67,-1.62 -2.77,-1.54 -3.54,-0.51 -3.36,-1.07 -3.8,-2.8 -0.73,0.52 -1.85,-0.2 -2.54,0.86 -0.44,0.66 -0.78,0.08 -1.29,0.58 a 10.1,10.1 0 0 0 -0.93,1.38 c -0.47,0.61 -0.36,2.13 -0.78,2.6 -0.74,0.85 -1.85,-0.3 -2,0.74 -0.15,1.04 -0.65,0.43 -0.76,1.36 -0.11,0.93 -1.88,0.27 -2.52,1 -0.64,0.73 -0.32,4.34 -1,4.82 -0.68,0.48 -1.34,3 -2.19,3.37 -0.85,0.37 -2.08,-0.76 -3,-0.6 -0.92,0.16 -2.74,1.09 -3.78,1.08 -3.15,-0.05 -3.15,-1.76 -3.83,-2.21 l 0.57,-4 c -4.8,-3.49 1.13,-5.32 0.72,-8.25 1.26,-0.94 -0.64,0.46 -2.32,-0.26 -2.61,-2.09 -1.11,-7.42 -0.2,-10 -0.56,-2.6 1.24,0.49 0.69,-1.27 -0.37,-1.22 -0.85,-2.85 -1.26,-4.4 -0.46,-1.76 3.08,1.06 3,0.18 a 2.4,2.4 0 0 1 2,-2.64 c 0.65,-0.18 -2.67,-2.91 -1.57,-1.26 z"
               transform="translate(101.56,-11.98)"
               style="fill:#5e9436;fill-opacity:1;fill-rule:evenodd" />
            <path
               id="path43206"
               class="cls-50"
               d="m 582.13,809.07 c -1,-3 -1.68,-1.91 -0.34,-2.61 l 2.37,0.41 c 0.4,-3.34 1.63,-2.21 2.57,-3.09 2.15,-2.94 2.49,-0.35 4,-0.52 a 5.86,5.86 0 0 1 2.79,-1.22 c 0.86,-0.87 1.58,-0.42 2.69,0.15 a 5.31,5.31 0 0 0 3.16,0.76 21.27,21.27 0 0 1 2.65,-0.37 c 2.48,-1.77 2.88,0.53 4.69,0.69 l 1.25,1.66 c 3.1,-1.08 0.65,0.1 0.56,0.94 0.75,0.55 2.82,-0.23 2.89,1.72 a 5.58,5.58 0 0 0 1.06,4 c 0.62,0.45 1.48,0.65 1.22,2.42 -0.34,2.3 0.73,1.54 1.21,2.43 0.48,0.89 2.72,1.43 1.57,3.13 l 0.2,2.24 c -0.08,1.41 2.41,3 2.13,4.14 0.66,1.32 1.76,7 -0.06,6.37 -6.21,6.36 -7.41,1.33 -4.89,-1.45 a 6.08,6.08 0 0 1 -1.41,1.59 c -0.82,0.61 -0.77,0.16 -0.66,-0.6 0.08,-0.47 -0.25,-0.58 -1,-0.14 -1.05,0.62 0,-0.5 -0.42,-0.2 -1.17,1.07 -1.45,0.91 -2.38,-0.17 a 3.28,3.28 0 0 1 -0.84,-3.28 c -1.47,0.11 -2.19,-0.38 -2.57,-1.13 0.37,-0.74 0,-1.35 -0.55,-1.92 -0.4,-1.27 -1.28,-1.09 -2.12,-1 -2.68,-0.34 -2.55,-0.72 -2.88,-1.89 -0.56,0.35 -1.41,-0.13 -1.94,0.58 -0.33,0.45 -0.58,0.06 -1,0.39 a 7.17,7.17 0 0 0 -0.7,0.94 c -0.36,0.41 -0.27,1.43 -0.59,1.75 -0.57,0.57 -1.41,-0.21 -1.54,0.5 -0.13,0.71 -0.49,0.28 -0.57,0.91 -0.08,0.63 -1.44,0.18 -1.92,0.65 -0.48,0.47 -0.25,2.92 -0.74,3.24 -0.49,0.32 -1,2 -1.67,2.27 -0.67,0.27 -1.58,-0.51 -2.29,-0.4 -0.71,0.11 -0.65,4.78 -1.44,4.77 -2.4,0 -4.31,2.14 -4.82,1.83 l -1.68,-3.8 c -3.65,-2.35 0,-4.93 -0.34,-6.9 1,-0.64 -2.33,-1.28 -3.6,-1.76 -2,-1.41 0.52,-5.39 1.21,-7.15 -0.42,-1.75 0.19,-3 -0.22,-4.18 -0.28,-0.82 4,-1.56 3.73,-2.61 -0.27,-1.05 0,-1.22 -0.07,-1.81 -0.09,-1.33 0.83,-1.23 1.31,-1.35 0.48,-0.12 0.56,-0.46 1.39,0.66 z"
               transform="translate(101.56,-11.98)"
               style="fill:#699d44;fill-opacity:1;fill-rule:evenodd" />
            <g
               id="g43224">
              <path
                 id="path43208"
                 class="cls-46"
                 d="m 582.71,815.13 c 0.74,-1.28 1,-0.32 3,0"
                 transform="translate(101.56,-11.98)"
                 style="fill:none;stroke:#588b33;stroke-linecap:square;stroke-linejoin:round;stroke-opacity:1" />
              <path
                 id="path43210"
                 class="cls-46"
                 d="m 592.92,829.77 c -0.68,0.26 -1.46,-0.75 -2.21,0 -0.47,0.48 -0.17,1.43 -0.67,1.73 -0.5,0.3 -1.1,-0.9 -1.47,-0.58 -0.37,0.32 -0.68,1.87 -1.1,2.19 -0.76,0.56 -1.44,-0.86 -1.77,0.07 -0.33,0.93 -0.79,1.53 -1,2.36"
                 transform="translate(101.56,-11.98)"
                 style="fill:none;stroke:#46712b;stroke-linecap:square;stroke-linejoin:round;stroke-opacity:1" />
              <path
                 id="path43212"
                 class="cls-46"
                 d="m 604.31,800 c -2.76,-2.5 -0.6,-1 -2.59,-0.74"
                 transform="translate(101.56,-11.98)"
                 style="fill:none;stroke:#588b33;stroke-linecap:square;stroke-linejoin:round;stroke-opacity:1" />
              <path
                 id="path43214"
                 class="cls-46"
                 d="m 620.45,824.58 c -0.48,-4.79 -1.54,-2.17 -2.59,-3.42"
                 transform="translate(101.56,-11.98)"
                 style="fill:none;stroke:#46712b;stroke-linecap:square;stroke-linejoin:round;stroke-opacity:1" />
              <path
                 id="path43216"
                 class="cls-46"
                 d="m 575.06,840.45 c 0.48,-4.79 1,-1.32 2.05,-2.57 m 0.85,-9.09 c 0.61,-0.85 0.2,-0.69 0.81,-0.71 1,-1.24 2,-1.61 3.25,-0.77"
                 transform="translate(101.56,-11.98)"
                 style="fill:none;stroke:#46712b;stroke-linecap:square;stroke-linejoin:round;stroke-opacity:1" />
              <path
                 id="path43218"
                 class="cls-46"
                 d="m 584.79,804.56 c -2.65,1 -2,1 -3,2.38 -0.76,1 -1,-0.74 -1,0.1 m 21.8,19.52 a 1.9,1.9 0 0 0 -1.85,-0.79 c -1,-1.24 -2,-1.61 -3.25,-0.77"
                 transform="translate(101.56,-11.98)"
                 style="fill:none;stroke:#46712b;stroke-linecap:square;stroke-linejoin:round;stroke-opacity:1" />
              <path
                 id="path43220"
                 class="cls-46"
                 d="m 613.58,824 c 0.74,-1.28 1,-0.32 3,-0.06"
                 transform="translate(101.56,-11.98)"
                 style="fill:none;stroke:#46712b;stroke-linecap:square;stroke-linejoin:round;stroke-opacity:1" />
              <path
                 id="path43222"
                 class="cls-46"
                 d="m 605.78,802.52 c 0.74,-1.28 1,-0.32 3,-0.06"
                 transform="translate(101.56,-11.98)"
                 style="fill:none;stroke:#588b33;stroke-linecap:square;stroke-linejoin:round;stroke-opacity:1" />
            </g>
          </g>
          <g
             id="g43354">
            <g
               id="g43260">
              <path
                 id="path43228"
                 class="cls-46"
                 d="m 592,831.69 c 0.6,-1 0.83,-0.25 2.42,0"
                 transform="translate(101.56,-11.98)"
                 style="fill:none;stroke:#46712b;stroke-linecap:square;stroke-linejoin:round;stroke-opacity:1" />
              <path
                 id="path43230"
                 class="cls-46"
                 d="m 598.07,812.81 c 0.59,1 0.82,0.25 2.42,0"
                 transform="translate(101.56,-11.98)"
                 style="fill:none;stroke:#588b33;stroke-linecap:square;stroke-linejoin:round;stroke-opacity:1" />
              <path
                 id="path43232"
                 class="cls-46"
                 d="m 594.63,818.3 c 0.59,-1 0.82,-0.25 2.41,0"
                 transform="translate(101.56,-11.98)"
                 style="fill:none;stroke:#588b33;stroke-linecap:square;stroke-linejoin:round;stroke-opacity:1" />
              <path
                 id="path43234"
                 class="cls-46"
                 d="m 601.7,810.7 c 0.59,-1 0.82,-0.24 2.42,0"
                 transform="translate(101.56,-11.98)"
                 style="fill:none;stroke:#588b33;stroke-linecap:square;stroke-linejoin:round;stroke-opacity:1" />
              <path
                 id="path43236"
                 class="cls-46"
                 d="m 608.72,820.61 c 0.59,-1 0.82,-0.24 2.42,0"
                 transform="translate(101.56,-11.98)"
                 style="fill:none;stroke:#46712b;stroke-linecap:square;stroke-linejoin:round;stroke-opacity:1" />
              <path
                 id="path43238"
                 class="cls-46"
                 d="m 613.55,826.41 c 0.51,0.23 0.41,0.46 1,0.57 0.59,0.11 0.46,2.42 1.15,2.4 m -3,-23.94 c -2.2,-2 -1,-0.06 -2.63,0.15"
                 transform="translate(101.56,-11.98)"
                 style="fill:none;stroke:#46712b;stroke-linecap:square;stroke-linejoin:round;stroke-opacity:1" />
              <path
                 id="path43240"
                 class="cls-46"
                 d="m 610.68,822.89 c 0.52,0.23 -0.15,0.28 0.47,0.39 0.62,0.11 -1.2,1.58 -0.5,1.56 m -2.37,-10.62 c -1.52,-1.46 -2.3,0.26 -3.12,0.12"
                 transform="translate(101.56,-11.98)"
                 style="fill:none;stroke:#46712b;stroke-linecap:square;stroke-linejoin:round;stroke-opacity:1" />
              <path
                 id="path43242"
                 class="cls-46"
                 d="m 614.68,818.34 c -0.49,-0.67 -0.15,-1.07 -0.64,-1.08 -0.77,-1 -0.21,-2.15 -1.18,-1.49 m -9.73,-0.29 c -2.21,-2 -1.57,0 -3.16,0.2"
                 transform="translate(101.56,-11.98)"
                 style="fill:none;stroke:#46712b;stroke-linecap:square;stroke-linejoin:round;stroke-opacity:1" />
              <path
                 id="path43244"
                 class="cls-46"
                 d="m 593.27,826.64 c -2.2,-2 -0.47,-0.78 -2.07,-0.58"
                 transform="translate(101.56,-11.98)"
                 style="fill:none;stroke:#588b33;stroke-linecap:square;stroke-linejoin:round;stroke-opacity:1" />
              <path
                 id="path43246"
                 class="cls-46"
                 d="m 615.88,815.06 c -0.38,-3.74 -1.23,-1.69 -2.07,-2.67"
                 transform="translate(101.56,-11.98)"
                 style="fill:none;stroke:#46712b;stroke-linecap:square;stroke-linejoin:round;stroke-opacity:1" />
              <path
                 id="path43248"
                 class="cls-46"
                 d="m 594.63,811.64 c 0.39,-3.75 0.8,-1 1.65,-2 m 0,-4.17 a 2.46,2.46 0 0 1 1.93,-0.75"
                 transform="translate(101.56,-11.98)"
                 style="fill:none;stroke:#588b33;stroke-linecap:square;stroke-linejoin:round;stroke-opacity:1" />
              <path
                 id="path43250"
                 class="cls-46"
                 d="m 592.2,818.26 c -0.61,0.81 -2.23,0 -2.29,0.64 m 14.46,-0.62 c -0.77,-1 -0.77,-1.66 -1.74,-1"
                 transform="translate(101.56,-11.98)"
                 style="fill:none;stroke:#588b33;stroke-linecap:square;stroke-linejoin:round;stroke-opacity:1" />
              <path
                 id="path43252"
                 class="cls-46"
                 d="m 603.51,820.67 c -2.21,-2 -0.48,-0.79 -2.07,-0.58"
                 transform="translate(101.56,-11.98)"
                 style="fill:none;stroke:#588b33;stroke-linecap:square;stroke-linejoin:round;stroke-opacity:1" />
              <path
                 id="path43254"
                 class="cls-46"
                 d="m 607.22,807.49 c -2.21,-2 -0.48,-0.78 -2.07,-0.58"
                 transform="translate(101.56,-11.98)"
                 style="fill:none;stroke:#588b33;stroke-linecap:square;stroke-linejoin:round;stroke-opacity:1" />
              <path
                 id="path43256"
                 class="cls-46"
                 d="m 597.94,822.25 c -2.2,-2 -0.48,-0.79 -2.07,-0.59"
                 transform="translate(101.56,-11.98)"
                 style="fill:none;stroke:#588b33;stroke-linecap:square;stroke-linejoin:round;stroke-opacity:1" />
              <path
                 id="path43258"
                 class="cls-46"
                 d="m 593.23,814.77 c -2.21,-2 -0.48,-0.79 -2.07,-0.58"
                 transform="translate(101.56,-11.98)"
                 style="fill:none;stroke:#46712b;stroke-linecap:square;stroke-linejoin:round;stroke-opacity:1" />
            </g>
            <g
               id="g43294">
              <path
                 id="path43262"
                 class="cls-46"
                 d="m 589.06,821.58 c -0.6,-1 -0.82,-0.25 -2.42,0"
                 transform="translate(101.56,-11.98)"
                 style="fill:none;stroke:#588b33;stroke-linecap:square;stroke-linejoin:round;stroke-opacity:1" />
              <path
                 id="path43264"
                 class="cls-46"
                 d="m 583,802.7 c -0.59,1 -0.82,0.25 -2.41,0"
                 transform="translate(101.56,-11.98)"
                 style="fill:none;stroke:#588b33;stroke-linecap:square;stroke-linejoin:round;stroke-opacity:1" />
              <path
                 id="path43266"
                 class="cls-46"
                 d="m 586.41,808.18 c -0.59,-1 -0.82,-0.24 -2.41,0"
                 transform="translate(101.56,-11.98)"
                 style="fill:none;stroke:#588b33;stroke-linecap:square;stroke-linejoin:round;stroke-opacity:1" />
              <path
                 id="path43268"
                 class="cls-46"
                 d="m 594.68,802.63 c -0.6,-1 -0.83,-0.25 -2.42,0"
                 transform="translate(101.56,-11.98)"
                 style="fill:none;stroke:#588b33;stroke-linecap:square;stroke-linejoin:round;stroke-opacity:1" />
              <path
                 id="path43270"
                 class="cls-46"
                 d="m 588.81,800.77 c -0.6,-1 -0.83,-0.25 -2.42,0"
                 transform="translate(101.56,-11.98)"
                 style="fill:none;stroke:#588b33;stroke-linecap:square;stroke-linejoin:round;stroke-opacity:1" />
              <path
                 id="path43272"
                 class="cls-46"
                 d="m 615.9,839 c -0.52,0.23 -0.41,0.46 -1,0.57 -0.59,0.11 -0.45,2.42 -1.15,2.4 m 3,-23.94 c 2.21,-2 1.05,-0.06 2.64,0.15"
                 transform="translate(101.56,-11.98)"
                 style="fill:none;stroke:#46712b;stroke-linecap:square;stroke-linejoin:round;stroke-opacity:1" />
              <path
                 id="path43274"
                 class="cls-46"
                 d="m 618.49,836.07 c 1.52,-1.46 2.3,0.26 3.12,0.12"
                 transform="translate(101.56,-11.98)"
                 style="fill:none;stroke:#46712b;stroke-linecap:square;stroke-linejoin:round;stroke-opacity:1" />
              <path
                 id="path43276"
                 class="cls-46"
                 d="m 607.4,829.43 c 0.5,-0.66 0.15,-1.07 0.65,-1.08 0.77,-1 0.21,-2.14 1.18,-1.49 m 9.73,-0.29 c 2.2,-2 1.56,0 3.15,0.2"
                 transform="translate(101.56,-11.98)"
                 style="fill:none;stroke:#46712b;stroke-linecap:square;stroke-linejoin:round;stroke-opacity:1" />
              <path
                 id="path43278"
                 class="cls-46"
                 d="m 587.77,816.53 c 2.2,-2 0.48,-0.78 2.07,-0.58"
                 transform="translate(101.56,-11.98)"
                 style="fill:none;stroke:#588b33;stroke-linecap:square;stroke-linejoin:round;stroke-opacity:1" />
              <path
                 id="path43280"
                 class="cls-46"
                 d="m 610.44,834.15 c 0.39,-3.75 1.23,-1.69 2.08,-2.68"
                 transform="translate(101.56,-11.98)"
                 style="fill:none;stroke:#46712b;stroke-linecap:square;stroke-linejoin:round;stroke-opacity:1" />
              <path
                 id="path43282"
                 class="cls-46"
                 d="m 601.25,809 c -0.39,-3.75 -0.8,-1 -1.64,-2 m 0,-4.16 a 2.49,2.49 0 0 0 -1.94,-0.75"
                 transform="translate(101.56,-11.98)"
                 style="fill:none;stroke:#588b33;stroke-linecap:square;stroke-linejoin:round;stroke-opacity:1" />
              <path
                 id="path43284"
                 class="cls-46"
                 d="m 589.66,806.86 c 0.61,0.82 2.23,0 2.29,0.65 m -14.46,-0.63 c 0.78,-1 0.77,-1.65 1.74,-1"
                 transform="translate(101.56,-11.98)"
                 style="fill:none;stroke:#588b33;stroke-linecap:square;stroke-linejoin:round;stroke-opacity:1" />
              <path
                 id="path43286"
                 class="cls-46"
                 d="m 577.53,810.56 c 2.21,-2 0.48,-0.79 2.07,-0.58"
                 transform="translate(101.56,-11.98)"
                 style="fill:none;stroke:#588b33;stroke-linecap:square;stroke-linejoin:round;stroke-opacity:1" />
              <path
                 id="path43288"
                 class="cls-46"
                 d="m 618.44,831.19 c 2.2,-2 0.47,-0.79 2.06,-0.58"
                 transform="translate(101.56,-11.98)"
                 style="fill:none;stroke:#46712b;stroke-linecap:square;stroke-linejoin:round;stroke-opacity:1" />
              <path
                 id="path43290"
                 class="cls-46"
                 d="m 583.1,812.14 c 2.21,-2 0.48,-0.79 2.07,-0.59"
                 transform="translate(101.56,-11.98)"
                 style="fill:none;stroke:#588b33;stroke-linecap:square;stroke-linejoin:round;stroke-opacity:1" />
              <path
                 id="path43292"
                 class="cls-46"
                 d="m 587.81,804.66 c 2.21,-2 0.48,-0.79 2.07,-0.58"
                 transform="translate(101.56,-11.98)"
                 style="fill:none;stroke:#588b33;stroke-linecap:square;stroke-linejoin:round;stroke-opacity:1" />
            </g>
            <path
               id="path43296"
               class="cls-46"
               d="m 596.78,798.22 c -0.6,-1 -0.83,-0.25 -2.42,0"
               transform="translate(101.56,-11.98)"
               style="fill:none;stroke:#588b33;stroke-linecap:square;stroke-linejoin:round;stroke-opacity:1" />
            <path
               id="path43298"
               class="cls-46"
               d="m 612.22,811.19 c -0.59,-1 -0.82,-0.24 -2.42,0"
               transform="translate(101.56,-11.98)"
               style="fill:none;stroke:#46712b;stroke-linecap:square;stroke-linejoin:round;stroke-opacity:1" />
            <path
               id="path43300"
               class="cls-46"
               d="m 590.15,810.89 c -0.59,-1 -0.82,-0.25 -2.42,0"
               transform="translate(101.56,-11.98)"
               style="fill:none;stroke:#588b33;stroke-linecap:square;stroke-linejoin:round;stroke-opacity:1" />
            <path
               id="path43302"
               class="cls-46"
               d="m 589.11,825.32 c -0.59,1 -0.82,0.25 -2.42,0"
               transform="translate(101.56,-11.98)"
               style="fill:none;stroke:#588b33;stroke-linecap:square;stroke-linejoin:round;stroke-opacity:1" />
            <path
               id="path43304"
               class="cls-46"
               d="m 585.82,820 c -0.59,-1 -0.82,-0.25 -2.41,0"
               transform="translate(101.56,-11.98)"
               style="fill:none;stroke:#588b33;stroke-linecap:square;stroke-linejoin:round;stroke-opacity:1" />
            <path
               id="path43306"
               class="cls-46"
               d="m 606.8,824.17 c -0.6,-1 -0.82,-0.25 -2.42,0"
               transform="translate(101.56,-11.98)"
               style="fill:none;stroke:#46712b;stroke-linecap:square;stroke-linejoin:round;stroke-opacity:1" />
            <path
               id="path43308"
               class="cls-46"
               d="m 604.06,831.41 c -0.59,-1 -0.82,-0.24 -2.42,0"
               transform="translate(101.56,-11.98)"
               style="fill:none;stroke:#46712b;stroke-linecap:square;stroke-linejoin:round;stroke-opacity:1" />
            <path
               id="path43310"
               class="cls-46"
               d="m 587.52,840.32 c -0.59,-1 -0.82,-0.25 -2.42,0"
               transform="translate(101.56,-11.98)"
               style="fill:none;stroke:#46712b;stroke-linecap:square;stroke-linejoin:round;stroke-opacity:1" />
            <path
               id="path43312"
               class="cls-46"
               d="m 583.14,833.53 c -0.59,-1 -0.82,-0.25 -2.42,0"
               transform="translate(101.56,-11.98)"
               style="fill:none;stroke:#46712b;stroke-linecap:square;stroke-linejoin:round;stroke-opacity:1" />
            <path
               id="path43314"
               class="cls-46"
               d="m 583.25,838.58 c -0.6,-1 -0.82,-0.25 -2.42,0"
               transform="translate(101.56,-11.98)"
               style="fill:none;stroke:#46712b;stroke-linecap:square;stroke-linejoin:round;stroke-opacity:1" />
            <path
               id="path43316"
               class="cls-46"
               d="m 582.26,843.26 c -0.59,-1 -0.82,-0.25 -2.41,0"
               transform="translate(101.56,-11.98)"
               style="fill:none;stroke:#46712b;stroke-linecap:square;stroke-linejoin:round;stroke-opacity:1" />
            <path
               id="path43318"
               class="cls-46"
               d="m 580,822.28 c -0.6,-1 -0.83,-0.24 -2.42,0"
               transform="translate(101.56,-11.98)"
               style="fill:none;stroke:#588b33;stroke-linecap:square;stroke-linejoin:round;stroke-opacity:1" />
            <path
               id="path43320"
               class="cls-46"
               d="m 579.85,815.49 c -0.59,-1 -0.82,-0.24 -2.41,0"
               transform="translate(101.56,-11.98)"
               style="fill:none;stroke:#588b33;stroke-linecap:square;stroke-linejoin:round;stroke-opacity:1" />
            <path
               id="path43322"
               class="cls-46"
               d="m 576.46,819.42 c -0.6,-1 -0.83,-0.25 -2.42,0"
               transform="translate(101.56,-11.98)"
               style="fill:none;stroke:#588b33;stroke-linecap:square;stroke-linejoin:round;stroke-opacity:1" />
            <path
               id="path43324"
               class="cls-46"
               d="m 575.09,826.66 c -0.6,-1 -0.82,-0.25 -2.42,0"
               transform="translate(101.56,-11.98)"
               style="fill:none;stroke:#588b33;stroke-linecap:square;stroke-linejoin:round;stroke-opacity:1" />
            <path
               id="path43326"
               class="cls-46"
               d="m 600.11,829.52 c -0.59,-1 -0.82,-0.24 -2.41,0"
               transform="translate(101.56,-11.98)"
               style="fill:none;stroke:#46712b;stroke-linecap:square;stroke-linejoin:round;stroke-opacity:1" />
            <path
               id="path43328"
               class="cls-46"
               d="m 611.7,816.08 c -0.59,1 -0.82,0.25 -2.42,0"
               transform="translate(101.56,-11.98)"
               style="fill:none;stroke:#46712b;stroke-linecap:square;stroke-linejoin:round;stroke-opacity:1" />
            <path
               id="path43330"
               class="cls-46"
               d="m 579.24,840.86 c -0.6,-1 -0.83,-0.25 -2.42,0"
               transform="translate(101.56,-11.98)"
               style="fill:none;stroke:#46712b;stroke-linecap:square;stroke-linejoin:round;stroke-opacity:1" />
            <path
               id="path43332"
               class="cls-46"
               d="m 609.49,798.79 c -0.59,-1 -0.82,-0.25 -2.41,0"
               transform="translate(101.56,-11.98)"
               style="fill:none;stroke:#588b33;stroke-linecap:square;stroke-linejoin:round;stroke-opacity:1" />
            <path
               id="path43334"
               class="cls-46"
               d="m 592.06,798.09 c -0.59,-1 -0.82,-0.24 -2.42,0"
               transform="translate(101.56,-11.98)"
               style="fill:none;stroke:#588b33;stroke-linecap:square;stroke-linejoin:round;stroke-opacity:1" />
            <path
               id="path43336"
               class="cls-46"
               d="m 611.54,841.15 c -0.52,0.23 -0.41,0.47 -1,0.57 -0.59,0.1 0.73,1.46 0,1.43 m 1.79,-23 c 2.21,-2 1,-0.06 2.64,0.15"
               transform="translate(101.56,-11.98)"
               style="fill:none;stroke:#46712b;stroke-linecap:square;stroke-linejoin:round;stroke-opacity:1" />
            <path
               id="path43338"
               class="cls-46"
               d="m 578.74,832.09 c -0.52,0.23 0.15,0.28 -0.48,0.39 -0.63,0.11 1.21,1.58 0.51,1.56 m 2.37,-10.62 c 1.52,-1.46 2.29,0.26 3.12,0.12"
               transform="translate(101.56,-11.98)"
               style="fill:none;stroke:#46712b;stroke-linecap:square;stroke-linejoin:round;stroke-opacity:1" />
            <path
               id="path43340"
               class="cls-46"
               d="m 593.74,822.23 c 0.49,-0.67 0.15,-1.08 0.64,-1.09 0.77,-1 0.21,-2.14 1.19,-1.49 m 11.23,-0.81 c 2.2,-2 0.06,0.51 1.65,0.72"
               transform="translate(101.56,-11.98)"
               style="fill:none;stroke:#46712b;stroke-linecap:square;stroke-linejoin:round;stroke-opacity:1" />
            <path
               id="path43342"
               class="cls-46"
               d="m 583.32,829.4 c 2.2,-2 0.47,-0.79 2.06,-0.58"
               transform="translate(101.56,-11.98)"
               style="fill:none;stroke:#46712b;stroke-linecap:square;stroke-linejoin:round;stroke-opacity:1" />
            <path
               id="path43344"
               class="cls-46"
               d="m 580.7,820 c 0.39,-3.75 1.24,-1.7 2.08,-2.68"
               transform="translate(101.56,-11.98)"
               style="fill:none;stroke:#588b33;stroke-linecap:square;stroke-linejoin:round;stroke-opacity:1" />
            <path
               id="path43346"
               class="cls-46"
               d="m 596.8,814.87 c -0.39,-3.75 -0.8,-1 -1.65,-2 m 0,-4.16 a 2.42,2.42 0 0 0 -1.93,-0.75"
               transform="translate(101.56,-11.98)"
               style="fill:none;stroke:#588b33;stroke-linecap:square;stroke-linejoin:round;stroke-opacity:1" />
            <path
               id="path43348"
               class="cls-46"
               d="m 614.44,804.19 c 0.61,0.81 0.54,0.12 0.6,0.77 m -12.77,-0.75 c 0.78,-1 0.77,-1.66 1.74,-1"
               transform="translate(101.56,-11.98)"
               style="fill:none;stroke:#46712b;stroke-linecap:square;stroke-linejoin:round;stroke-opacity:1" />
            <path
               id="path43350"
               class="cls-46"
               d="m 613.61,835.11 c 2.2,-2 0.47,-0.78 2.06,-0.58"
               transform="translate(101.56,-11.98)"
               style="fill:none;stroke:#46712b;stroke-linecap:square;stroke-linejoin:round;stroke-opacity:1" />
            <path
               id="path43352"
               class="cls-46"
               d="m 614.19,808.85 c 2.2,-2 0.48,-0.79 2.07,-0.58"
               transform="translate(101.56,-11.98)"
               style="fill:none;stroke:#46712b;stroke-linecap:square;stroke-linejoin:round;stroke-opacity:1" />
          </g>
        </g>
      </g>
    </g>
  </g>
</svg>
