<?xml version='1.0' encoding='utf-8'?>
<svg xmlns="http://www.w3.org/2000/svg" viewBox="0 0 1000 1000" width="1000" height="1000">
  <g id="tree-root" transform="matrix(2.077098 0 0 2.077098 211.806829 85.000000)">
    <g id="layer1" transform="matrix(-1,0,0,1,445.38489,-64.395254)">
      <g id="g1217">
        <g id="g43358" transform="matrix(-4.982688,0,0,3.7298922,3788.0106,-2848.4382)">
          <g id="g43200">
            <path id="path43126" d="m 598.15,845.75 c -0.86,0 -1.59,3.79 -3.11,3.16 0,2.45 -2,2.14 -0.72,16.8 -0.55,5.8 -0.25,10.61 -0.93,21.22 -0.23,0.58 -0.5,1.19 -0.78,1.78 v 0 c -0.38,0.69 -2.62,4.65 -4.07,5.54 4.25,1 4,-1.3 5.17,3.42 -1.3,2.45 3.26,2.58 3,0 0.49,-3.54 3.31,2 4.23,0.19 -0.64,-7.57 0.93,-3.84 2.67,-1.78 3.21,0.66 0.57,-3.85 -0.59,-4.58 a 5.57,5.57 0 0 1 -2.13,-2.68 c -0.19,-0.45 -0.38,-0.92 -0.57,-1.43 -0.35,-7.33 -1,-13.58 -0.62,-20.76 1,-5 0.83,-8.37 -1,-20.45 -0.17,-0.31 -0.34,-0.43 -0.5,-0.43 z" transform="translate(101.56,-11.98)" fill="#2E7D32" fill-opacity="1" fill-rule="evenodd" stroke="#1B5E20" stroke-linecap="round" stroke-linejoin="round" stroke-opacity="1" />
            <path id="path43128" d="m 594.17,857.35 c -2.89,-3.09 -2,-3.62 -3.21,-6.65 -0.23,-0.58 -2.3,-3.31 -2.55,-3.92 -0.5,-1.2 -0.5,-1.21 -1.33,-1.56 -0.83,-0.35 -2.07,0.51 -2,0.17 0.07,-0.34 1.22,-1.95 2,-2.11 0.78,-0.16 1,0.87 0.76,-0.06 a 4.4,4.4 0 0 0 -1.47,-2.63 c -1,-0.9 -1.13,-0.08 -2,0.52 -0.87,0.6 -0.89,1.39 -1.58,1.87 -0.69,0.48 -1.15,0.43 -1.16,0.08 a 4.12,4.12 0 0 0 2.05,-2.2 c 0.61,-0.72 1.49,-1.46 1.49,-2.14 a 2.61,2.61 0 0 0 -1.58,-2.16 c -0.9,-0.26 -1.09,0.31 -1.81,0.38 -0.72,0.07 -1.16,1 -1.12,0.61 0.04,-0.39 0.36,-0.79 1.1,-1.33 0.74,-0.54 1.69,-0.19 1.86,-0.81 0.17,-0.62 -0.47,-1 -1.18,-1.67 -0.71,-0.67 -0.93,-1.15 -1.65,-1.12 -0.72,0.03 -0.69,0.09 -1.23,1.24 -0.54,1.15 -0.44,2.13 -0.91,3.36 -0.47,1.23 -1.18,2.62 -1.66,1.16 0.78,-0.42 1.16,-0.24 1.49,-2 a 17.9,17.9 0 0 0 0.53,-3.81 c 0.05,-0.7 0,-0.34 -0.5,-0.34 -0.5,0 -0.69,0.79 -1.54,0.34 a 5,5 0 0 1 -1.88,-2.15 c -0.05,-0.33 1.38,1.49 2.18,1.51 0.8,0.02 0.46,-1.18 1,-1.41 0.54,-0.23 0.84,0.35 0.71,-0.21 a 12.26,12.26 0 0 0 -1.21,-2 c -0.5,-0.9 -0.4,-0.27 -0.78,-1.57 -0.38,-1.3 -1.17,-3.86 -0.77,-3.63 0.4,0.23 0.84,3 1.71,4.46 0.87,1.46 1.11,1 1.75,1.35 0.64,0.35 1.39,1.16 1.47,0.31 0.08,-0.85 -0.59,-2.23 -1.08,-4.43 -0.49,-2.2 -1.12,-4.47 -0.89,-4.36 0.23,0.11 0.59,2.7 1.72,5.5 a 37.47,37.47 0 0 0 2.59,5.32 c 0.92,1.71 1,2.23 1.1,1.51 a 14.31,14.31 0 0 0 -0.52,-4 c -0.45,-2 -1.38,-4.09 -1.26,-4.14 a 13.38,13.38 0 0 1 1.75,4 c 0.69,2.2 0.44,2.76 1,4.82 a 15.85,15.85 0 0 0 1.2,3.41 c 0.5,1.16 0.67,1.46 0.81,1.25 a 4,4 0 0 0 0.25,-2.23 c -0.09,-1.36 -0.4,-1.77 -0.61,-3.21 a 12,12 0 0 0 -0.69,-2.38 11,11 0 0 1 1.28,3.3 c 0.5,2.07 0.24,2.72 0.75,5 0.51,2.28 0.88,2.37 1.25,4.14 0.18,0.88 2.51,3.63 2.74,4.08 0.23,0.45 0.58,0.88 2.72,3.13" transform="translate(101.56,-11.98)" fill="#2E7D32" fill-opacity="1" fill-rule="evenodd" stroke="#1B5E20" stroke-linecap="round" stroke-linejoin="round" stroke-opacity="1" />
            <path id="path43130" d="m 600.36,854.61 c 3.06,-2 1.77,-5.74 3.15,-8.1 0.26,-0.45 2.48,-2.32 2.76,-2.79 0.56,-0.93 0.56,-0.94 1.42,-1 0.86,-0.06 2.06,1 2,0.67 -0.06,-0.33 -1.36,-1.17 -2.2,-1.54 -0.84,-0.37 -1.41,0.84 -1.14,0.07 0.27,-0.77 1.16,-2.59 2.22,-3.12 1.06,-0.53 1.15,0.23 2,1 0.85,0.77 0.82,1.46 1.49,2.07 0.67,0.61 1.15,0.68 1.18,0.37 a 5.12,5.12 0 0 1 -2,-2.48 c -0.57,-0.79 -1.43,-1.67 -1.4,-2.28 a 1.81,1.81 0 0 1 1.7,-1.49 c 0.92,0 1.08,0.56 1.81,0.81 0.73,0.25 1.12,1.17 1.1,0.84 -0.02,-0.33 -0.33,-0.8 -1,-1.47 -0.67,-0.67 -1.7,-0.61 -1.84,-1.2 -0.14,-0.59 0.53,-0.74 1.27,-1.17 0.74,-0.43 1,-0.77 1.72,-0.56 0.72,0.21 0.7,0.27 1.18,1.42 0.48,1.15 0.34,2 0.76,3.21 0.42,1.21 1.06,2.63 1.61,1.46 -0.76,-0.58 -1.15,-0.52 -1.4,-2.11 a 15.51,15.51 0 0 1 -0.36,-3.5 c 0,-0.64 0,-0.31 0.53,-0.18 0.53,0.13 0.65,0.88 1.54,0.71 a 3.62,3.62 0 0 0 2,-1.4 c 0.07,-0.29 -1.47,0.94 -2.28,0.76 -0.81,-0.18 -0.4,-1.17 -1,-1.52 -0.6,-0.35 -0.86,0.09 -0.7,-0.37 0.16,-0.46 0.77,-0.82 1.32,-1.48 0.55,-0.66 0.41,-0.14 0.86,-1.18 0.45,-1.04 1.36,-3.11 0.95,-3 -0.41,0.11 -1,2.44 -1.93,3.5 -0.93,1.06 -1.18,0.55 -1.84,0.72 -0.66,0.17 -1.46,0.66 -1.5,-0.11 -0.04,-0.77 0.71,-1.81 1.31,-3.62 0.6,-1.81 1.34,-3.66 1.11,-3.63 -0.23,0.03 -0.73,2.23 -2,4.41 a 25.23,25.23 0 0 1 -2.87,4 c -1,1.27 -1.12,1.7 -1.18,1.05 a 9.87,9.87 0 0 1 0.72,-3.39 c 0.54,-1.68 1.58,-3.26 1.46,-3.33 a 8.71,8.71 0 0 0 -2,3 c -0.79,1.76 -0.57,2.33 -1.21,4 a 11.08,11.08 0 0 1 -1.37,2.7 c -0.57,0.89 -0.76,1.11 -0.89,0.89 a 3.52,3.52 0 0 1 -0.14,-2 24.13,24.13 0 0 1 0.76,-2.68 7.78,7.78 0 0 1 0.82,-1.92 6.8,6.8 0 0 0 -1.45,2.57 c -0.61,1.7 -0.38,2.34 -1,4.23 -0.62,1.89 -1,1.87 -1.47,3.33 -0.23,0.73 -2.71,2.55 -3,2.89 -0.13,0.17 -1.06,6.22 -3.46,8.18 -2.86,1.46 -2,2.59 -2.38,3.88" transform="translate(101.56,-11.98)" fill="#2E7D32" fill-opacity="1" fill-rule="evenodd" stroke="#1B5E20" stroke-linecap="round" stroke-linejoin="round" stroke-opacity="1" />
            <path id="path43132" d="m 594.72,858.48 -0.13,-3.06 c -1.81,-1.39 -2.16,-2.79 -2.91,-5 l -3.46,-5.59 0.58,-1.79 2.91,4.33 c 0.66,2.22 1.51,2.59 3.81,3.71 l -0.12,4.33 1.49,0.13 c 0.32,-0.47 -0.76,1.23 0.13,-1.3 0.14,-0.38 -0.12,-1.65 0.55,-1.67 1.22,0 2.95,-2.76 3.25,-2 l 1.81,-6.56 2.83,-2.09 c -0.13,0.56 -2.73,3.52 -2.82,4.09 -0.35,2.33 -0.45,4.66 -1.75,7 l -1.76,0.52 c 0,3.82 0.91,7.63 -0.21,11.45 0.94,8.31 -2.41,17 1.47,25.17 0.52,1.09 2,2.45 2.78,3.5 l -0.13,0.54 c -1.24,-1.7 -3.5,-3.09 -3,-1.81 l -0.36,4.22 c -0.36,-0.36 -0.62,-1.6 -1.45,-2.63 l -1.28,0.54 -1.45,2.83 a 3,3 0 0 1 -0.68,-2.08 l -0.66,-1.44 -1,-0.62 -1.9,-0.49 3.06,-5.79 0.23,-17.17 0.29,-3.83 -0.19,-3.23 z" transform="translate(101.56,-11.98)" fill="#2E7D32" fill-opacity="1" fill-rule="evenodd" />
            <path id="path43134" d="m 595.3,849.78 c -1,-4.9 -0.53,-2.64 -1.28,-6.36 -0.15,-0.71 -1.74,-4.8 -1.89,-5.55 a 4.09,4.09 0 0 0 -1,-2.45 c -0.73,-1 -2,-1.13 -1.89,-1.39 0.11,-0.26 1.42,0.24 2.23,0.74 0.81,0.5 1.08,2.26 1,1.23 a 17.47,17.47 0 0 0 -1.35,-5.32 c -0.83,-1.6 -1,-0.95 -2,-1.1 -1,-0.15 -1,0.59 -1.71,0.51 -0.71,-0.08 -1.14,-0.51 -1.1,-0.84 1,0.24 1.53,0.28 2.2,-0.43 0.66,-0.18 1.58,-0.18 1.67,-0.8 a 5.44,5.44 0 0 0 -1.21,-3.2 c -0.8,-0.92 -1.05,-0.55 -1.74,-1.05 -0.69,-0.5 -1.21,0 -1.12,-0.3 0.09,-0.3 0.43,-0.44 1.19,-0.36 0.76,0.08 1.61,1.13 1.85,0.7 0.24,-0.43 -0.32,-1.26 -0.89,-2.44 -0.57,-1.18 -0.73,-1.77 -1.4,-2.3 -0.67,-0.53 -0.66,-0.45 -1.31,0.18 -0.65,0.63 -0.68,1.61 -1.29,2.37 -0.61,0.76 -1.43,1.49 -1.69,-0.22 0.78,0.21 1.11,0.67 1.64,-0.64 a 11,11 0 0 0 1,-3.06 c 0.13,-0.61 0.05,-0.31 -0.43,-0.71 -0.48,-0.4 -0.74,0.2 -1.48,-0.87 a 11.9,11.9 0 0 1 -1.49,-3.42 c 0,-0.34 1.11,2.43 1.86,3.07 0.75,0.64 0.57,-0.73 1.12,-0.51 0.55,0.22 0.74,1 0.69,0.35 a 25,25 0 0 0 -0.87,-2.79 6.64,6.64 0 0 1 -0.54,-2 c -0.19,-1.49 -0.59,-4.43 -0.25,-3.91 0.34,0.52 0.4,3.4 1,5.39 a 5.55,5.55 0 0 0 1.47,2.59 c 0.55,0.85 1.15,2.13 1.33,1.41 0.18,-0.72 -0.27,-2.49 -0.45,-4.88 -0.18,-2.39 -0.47,-5 -0.27,-4.67 0.2,0.33 0.21,2.92 0.9,6.35 a 69.14,69.14 0 0 0 1.75,6.86 c 0.64,2.27 0.65,2.81 0.83,2.23 a 14.55,14.55 0 0 0 0,-4 c -0.16,-2.2 -0.77,-4.81 -0.65,-4.75 a 23.36,23.36 0 0 1 1.14,5 c 0.35,2.53 0,2.85 0.29,5.15 a 25.84,25.84 0 0 0 0.69,4 c 0.32,1.45 0.45,1.85 0.61,1.77 0.16,-0.08 0.42,-0.53 0.51,-1.84 0.09,-1.31 -0.15,-1.94 -0.16,-3.41 a 14.33,14.33 0 0 0 -0.35,-2.7 17.2,17.2 0 0 1 0.78,4 c 0.21,2.29 -0.12,2.68 0.06,5.16 0.18,2.48 0.53,2.85 0.65,4.75 0.06,1 1.88,5.26 2,5.85 0.12,0.59 -0.52,3.86 1.19,7.56" transform="translate(101.56,-11.98)" fill="#2E7D32" fill-opacity="1" fill-rule="evenodd" stroke="#1B5E20" stroke-linecap="round" stroke-linejoin="round" stroke-opacity="1" />
            <path id="path43136" d="m 599.21,849.75 c 1.27,-7.06 -0.05,-6.39 0,-10.61 0,-0.81 0.77,-6.24 0.79,-7.09 a 8.1,8.1 0 0 1 0.54,-3.36 c 0.52,-1.65 1.68,-3.11 1.53,-3.23 -0.15,-0.12 -1.29,1.69 -2,3 -0.71,1.31 -0.62,3.21 -0.71,2.17 a 25,25 0 0 1 0.32,-6.33 c 0.5,-2.34 0.82,-2 1.65,-3 0.83,-1 1.05,-0.49 1.69,-1.29 A 3.17,3.17 0 0 0 604,818 c -0.85,1.21 -1.38,1.83 -2.13,1.87 -0.65,0.51 -1.51,1.46 -1.7,1 a 9.3,9.3 0 0 1 0.57,-4.21 14.48,14.48 0 0 1 1.44,-2.77 c 0.55,-1.17 1.13,-1.25 1,-1.44 -0.13,-0.19 -0.49,0 -1.19,0.9 -0.7,0.9 -1.3,2.71 -1.6,2.55 -0.3,-0.16 0.08,-1.49 0.41,-3.18 a 13.91,13.91 0 0 1 0.9,-3.58 c 0.54,-1.19 0.54,-1.1 1.26,-1.17 0.72,-0.07 0.92,0.78 1.62,0.87 0.7,0.09 1.59,-0.1 1.54,-2 -0.69,1 -0.92,1.76 -1.64,1.09 -0.58,-0.14 -1.23,-1.39 -1.46,-1.82 -0.23,-0.43 -0.1,-0.24 0.28,-1.1 0.38,-0.86 0.72,-0.58 1.23,-2.34 a 22.05,22.05 0 0 0 0.79,-4.7 c -0.06,-0.32 -0.61,3.4 -1.19,4.76 -0.58,1.36 -0.67,-0.08 -1.15,0.68 -0.48,0.76 -0.51,1.65 -0.58,1 -0.07,-0.65 0.21,-2 0.33,-3.49 a 9.75,9.75 0 0 0 0.14,-2.44 c -0.08,-1.58 -0.22,-4.73 -0.45,-3.89 -0.23,0.84 0.22,3.57 0,6.06 a 13.32,13.32 0 0 1 -0.93,3.91 c -0.36,1.36 -0.7,3.17 -1,2.69 -0.3,-0.48 -0.18,-2.59 -0.43,-5 -0.25,-2.41 -0.43,-5.07 -0.56,-4.61 -0.13,0.46 0.31,2.92 0.26,6.82 -0.05,3.9 -0.22,5.38 -0.42,8.16 -0.2,2.78 -0.12,3.28 -0.39,2.93 -0.27,-0.35 -0.49,-1.53 -0.74,-3.73 -0.25,-2.2 -0.12,-5.25 -0.23,-5.07 a 34.48,34.48 0 0 0 -0.18,5.78 c 0.11,2.71 0.45,2.7 0.62,5.08 a 29.77,29.77 0 0 1 0.07,4.45 c -0.05,1.68 -0.09,2.18 -0.25,2.27 -0.16,0.09 -0.5,-0.05 -0.81,-1.17 -0.31,-1.12 -0.2,-2 -0.45,-3.33 a 18.44,18.44 0 0 1 -0.15,-2.87 23.58,23.58 0 0 0 0,4.51 c 0.2,2.33 0.57,2.36 0.84,4.84 0.27,2.48 0,3.18 0.23,5.07 0.11,0.94 -0.84,6.82 -0.88,7.54 a 31.82,31.82 0 0 1 -0.06,9.7" transform="translate(101.56,-11.98)" fill="#2E7D32" fill-opacity="1" fill-rule="evenodd" stroke="#1B5E20" stroke-linecap="round" stroke-linejoin="round" stroke-opacity="1" />
            <path id="path43138" d="m 598.12,863.79 0.25,1.59 v 6.18 l 0.22,18.17 -0.55,0.32 v -13.48 l -0.28,-3.7 z" transform="translate(101.56,-11.98)" fill="#2E7D32" fill-opacity="1" fill-rule="evenodd" />
            <path id="path43140" d="m 595.78,891.1 0.88,0.54 0.16,-3.32 v -9.85 l -0.46,-10.47 -0.51,-5.45 v 0 l 0.14,10.4 -0.17,14.21 z" transform="translate(101.56,-11.98)" fill="#2E7D32" fill-opacity="1" fill-rule="evenodd" />
            <g id="g43198">
              <path id="path43142" d="m 596.68,800.24 c -0.53,-1.23 -0.74,-0.31 -2.17,0" transform="translate(101.56,-11.98)" fill="none" stroke="#1B5E20" stroke-linecap="square" stroke-linejoin="round" />
              <path id="path43144" d="m 610.6,816.17 c -0.54,-1.23 -0.74,-0.31 -2.18,0" transform="translate(101.56,-11.98)" fill="none" stroke="#1B5E20" stroke-linecap="square" stroke-linejoin="round" />
              <path id="path43146" d="m 590.71,815.8 c -0.53,-1.23 -0.74,-0.31 -2.17,0" transform="translate(101.56,-11.98)" fill="none" stroke="#1B5E20" stroke-linecap="square" stroke-linejoin="round" />
              <path id="path43148" d="m 589.78,833.51 c -0.54,1.23 -0.75,0.3 -2.18,0" transform="translate(101.56,-11.98)" fill="none" stroke="#1B5E20" stroke-linecap="square" stroke-linejoin="round" />
              <path id="path43150" d="m 586.81,827 c -0.53,-1.23 -0.74,-0.3 -2.17,0" transform="translate(101.56,-11.98)" fill="none" stroke="#1B5E20" stroke-linecap="square" stroke-linejoin="round" />
              <path id="path43152" d="m 605.71,832.1 c -0.53,-1.23 -0.74,-0.31 -2.17,-0.05" transform="translate(101.56,-11.98)" fill="none" stroke="#1B5E20" stroke-linecap="square" stroke-linejoin="round" />
              <path id="path43154" d="m 584.4,843.58 c -0.54,-1.23 -0.75,-0.31 -2.18,-0.05" transform="translate(101.56,-11.98)" fill="none" stroke="#1B5E20" stroke-linecap="square" stroke-linejoin="round" />
              <path id="path43156" d="m 581.58,829.78 c -0.53,-1.23 -0.74,-0.3 -2.17,0" transform="translate(101.56,-11.98)" fill="none" stroke="#1B5E20" stroke-linecap="square" stroke-linejoin="round" />
              <path id="path43158" d="m 581.44,821.45 c -0.54,-1.23 -0.75,-0.31 -2.18,-0.05" transform="translate(101.56,-11.98)" fill="none" stroke="#1B5E20" stroke-linecap="square" stroke-linejoin="round" />
              <path id="path43160" d="m 578.38,826.26 c -0.54,-1.23 -0.75,-0.3 -2.18,0" transform="translate(101.56,-11.98)" fill="none" stroke="#1B5E20" stroke-linecap="square" stroke-linejoin="round" />
              <path id="path43162" d="m 577.14,835.15 c -0.53,-1.23 -0.74,-0.3 -2.17,0" transform="translate(101.56,-11.98)" fill="none" stroke="#1B5E20" stroke-linecap="square" stroke-linejoin="round" />
              <path id="path43164" d="m 610.13,822.17 c -0.54,1.23 -0.74,0.3 -2.18,0.05" transform="translate(101.56,-11.98)" fill="none" stroke="#1B5E20" stroke-linecap="square" stroke-linejoin="round" />
              <path id="path43166" d="m 608.14,800.94 c -0.54,-1.23 -0.74,-0.3 -2.18,-0.05" transform="translate(101.56,-11.98)" fill="none" stroke="#1B5E20" stroke-linecap="square" stroke-linejoin="round" />
              <path id="path43168" d="m 592.43,800.09 c -0.53,-1.23 -0.74,-0.31 -2.17,-0.05" transform="translate(101.56,-11.98)" fill="none" stroke="#1B5E20" stroke-linecap="square" stroke-linejoin="round" />
              <path id="path43170" d="m 610.69,827.2 c 2,-2.4 0.94,-0.07 2.38,0.18" transform="translate(101.56,-11.98)" fill="none" stroke="#1B5E20" stroke-linecap="square" stroke-linejoin="round" />
              <path id="path43172" d="m 580.43,841.82 c -0.47,0.28 0.14,0.34 -0.43,0.47 -0.57,0.13 1.09,2 0.46,1.92 m 2.13,-13 c 1.37,-1.79 2.07,0.32 2.81,0.15" transform="translate(101.56,-11.98)" fill="none" stroke="#1B5E20" stroke-linecap="square" stroke-linejoin="round" />
              <path id="path43174" d="m 594,829.71 c 0.44,-0.82 0.13,-1.32 0.58,-1.33 0.69,-1.2 0.19,-2.64 1.06,-1.83 m 10.12,-1 c 2,-2.41 0.06,0.62 1.49,0.88" transform="translate(101.56,-11.98)" fill="none" stroke="#1B5E20" stroke-linecap="square" stroke-linejoin="round" />
              <path id="path43176" d="m 584.56,838.51 c 2,-2.41 0.42,-1 1.86,-0.71" transform="translate(101.56,-11.98)" fill="none" stroke="#1B5E20" stroke-linecap="square" stroke-linejoin="round" />
              <path id="path43178" d="m 582.2,826.91 c 0.35,-4.6 1.11,-2.08 1.87,-3.28" transform="translate(101.56,-11.98)" fill="none" stroke="#1B5E20" stroke-linecap="square" stroke-linejoin="round" />
              <path id="path43180" d="m 596.7,820.68 c -0.35,-4.6 -0.72,-1.27 -1.48,-2.47 m 0,-5.11 a 2,2 0 0 0 -1.75,-0.93" transform="translate(101.56,-11.98)" fill="none" stroke="#1B5E20" stroke-linecap="square" stroke-linejoin="round" />
              <path id="path43182" d="m 612.6,807.57 c 0.55,1 0.48,0.14 0.54,0.95 m -11.5,-0.93 c 0.69,-1.19 0.69,-2 1.56,-1.23" transform="translate(101.56,-11.98)" fill="none" stroke="#1B5E20" stroke-linecap="square" stroke-linejoin="round" />
              <path id="path43184" d="m 611.85,845.53 c 2,-2.41 0.42,-1 1.86,-0.71" transform="translate(101.56,-11.98)" fill="none" stroke="#1B5E20" stroke-linecap="square" stroke-linejoin="round" />
              <path id="path43186" d="m 612.37,813.29 c 2,-2.41 0.43,-1 1.87,-0.71" transform="translate(101.56,-11.98)" fill="none" stroke="#1B5E20" stroke-linecap="square" stroke-linejoin="round" />
              <g id="g43196">
                <path id="path43188" d="M 597.81,871.54 597.3,858.27" transform="translate(101.56,-11.98)" fill="none" stroke="#1B5E20" stroke-linecap="round" stroke-linejoin="round" stroke-opacity="1" />
                <path id="path43190" d="m 595.27,890.68 c 0.09,-3.42 0.25,-15.11 0.21,-18.65 0,-3.1 -0.29,-11.14 0.08,-15.27" transform="translate(101.56,-11.98)" fill="none" stroke="#1B5E20" stroke-linecap="round" stroke-linejoin="round" stroke-opacity="1" />
                <path id="path43192" d="m 599,889.34 c 0,-4.94 -0.14,-14.31 -0.29,-23.12 -0.09,-5.17 -0.38,-10.18 0,-13.91" transform="translate(101.56,-11.98)" fill="none" stroke="#1B5E20" stroke-linecap="round" stroke-linejoin="round" stroke-opacity="1" />
                <path id="path43194" d="m 597.32,891.78 a 171.89,171.89 0 0 0 -0.6,-26.9 c -0.15,-1.69 -0.73,-5.11 -0.35,-7.68" transform="translate(101.56,-11.98)" fill="none" stroke="#1B5E20" stroke-linecap="round" stroke-linejoin="round" stroke-opacity="1" />
              </g>
            </g>
          </g>
          <g id="g43356">
            <g id="g43226">
              <path id="path43202" d="m 574.8,808.1 c -1.41,-5 -1,-7.54 0.8,-8.68 l 2.14,2.05 c 0.6,-5.55 2.6,-3 3.92,-4.49 3,-4.83 4.29,-0.51 6.43,-0.76 a 2.42,2.42 0 0 1 2.31,-0.91 c 1.21,-1.44 2.55,-1.86 4.06,-0.89 a 4.89,4.89 0 0 0 3.92,0.71 16.43,16.43 0 0 1 3,-0.45 c 3.45,-2.89 5.17,0 7.66,0.3 l 1.79,1.94 c 4.28,-1.74 3.19,1.89 3,3.29 1,0.93 2.86,-0.11 2.92,3.14 -0.35,2.47 1.08,4.61 2.18,6.81 0.85,0.75 2.57,1.83 2.23,4.78 -0.15,1.3 2.13,1.15 2.42,2.74 0.35,1.93 1.73,4.58 0.13,7.38 l 0.77,2.4 c -0.13,2.34 -1.17,3.56 -1.57,5.5 0.89,2.2 0.54,6.27 -2,5.11 -0.16,0.44 -0.63,0.89 -0.49,1.38 1.65,5.56 -1.41,3.86 -2.32,5.52 a 10.13,10.13 0 0 1 -2,2.62 c -1.15,1 -1.07,0.24 -0.91,-1 0.11,-0.79 -0.34,-1 -1.39,-0.26 -1.45,1 0,-0.83 -0.58,-0.34 -1.62,1.75 -2,1.48 -3.27,-0.33 a 6.33,6.33 0 0 1 -1.11,-5.48 c -2,0.16 -3,-0.66 -3.52,-1.92 a 3,3 0 0 0 -0.74,-3.2 c -0.52,-2.13 -1.74,-1.84 -2.89,-1.77 -3.69,-0.63 -3.51,-1.25 -4,-3.2 -0.77,0.57 -1.93,-0.25 -2.67,0.92 -0.46,0.74 0.12,1.67 -0.43,2.21 -0.55,0.54 -1.53,-0.56 -1.91,0 -0.49,0.68 -0.4,2.37 -0.84,2.9 -0.79,0.94 -1.93,-0.37 -2.12,0.79 -0.19,1.16 -0.61,2 -0.74,3.08 a 4.83,4.83 0 0 1 -1,2.76 14.17,14.17 0 0 1 -1.64,2.11 12.48,12.48 0 0 1 -2.64,1.08 c -0.81,0.34 -2.35,-1 -3.33,-0.85 -0.98,0.15 -1.25,1.81 -2.34,1.78 -3.3,-0.1 -3.56,0.15 -4.26,-0.36 l -0.49,-3.93 c -5,-4 -0.81,-6.58 -1.22,-9.87 1.33,-1 1.41,-2 -0.34,-2.81 -2.72,-2.38 -2.06,-5.82 -1.08,-8.73 -0.56,-2.92 1.29,0.57 0.74,-1.4 -0.38,-1.38 -0.87,-3.21 -1.28,-5 -0.47,-2 0,-2 -0.08,-3 -0.1,-2.22 1.16,-2 1.83,-2.23 0.67,-0.23 0.77,-0.74 1.91,1.13 z" transform="translate(101.56,-11.98)" fill="#2E7D32" fill-opacity="1" fill-rule="evenodd" stroke="#1B5E20" stroke-linecap="square" stroke-linejoin="round" stroke-opacity="1" />
              <path id="path43204" d="m 576.85,807.36 c -1.39,-4.4 -2.21,-2.84 -0.46,-3.88 l 3.13,0.61 c 0.53,-5 2.14,-3.28 3.38,-4.6 2.82,-4.35 3.27,-0.51 5.32,-0.76 a 7.19,7.19 0 0 1 3.67,-1.81 c 1.14,-1.3 2.08,-0.63 3.54,0.22 a 6.37,6.37 0 0 0 4.16,1.12 25.32,25.32 0 0 1 3.48,-0.54 c 3.27,-2.63 3.79,0.79 6.17,1 l 1.65,2.46 c 4.07,-1.61 0.85,0.14 0.73,1.39 1,0.82 3.71,-0.35 3.8,2.56 a 9.07,9.07 0 0 0 1.4,5.94 c 0.81,0.66 1.94,1 1.6,3.59 -0.45,3.41 1,2.29 1.59,3.6 0.73,1.51 3.57,2.13 2.06,4.65 l 0.27,3.32 c -0.11,2.09 -0.68,-0.25 -1.05,1.49 0.87,2 1.07,9.26 -1.33,8.25 -1.13,-0.46 -1.58,-0.16 -1.44,0.27 1.62,4.94 1,2 0.11,3.45 a 8.82,8.82 0 0 1 -1.85,2.36 c -1.08,0.9 -1,0.23 -0.87,-0.89 0.1,-0.7 -0.33,-0.86 -1.33,-0.2 -1.38,0.91 0,-0.75 -0.55,-0.3 -1.54,1.58 -1.91,1.34 -3.14,-0.26 a 5.37,5.37 0 0 1 -1.1,-4.87 c -1.94,0.17 -2.87,-0.56 -3.37,-1.67 A 2.54,2.54 0 0 0 605.68,831 c -0.51,-1.89 -1.67,-1.62 -2.77,-1.54 -3.54,-0.51 -3.36,-1.07 -3.8,-2.8 -0.73,0.52 -1.85,-0.2 -2.54,0.86 -0.44,0.66 -0.78,0.08 -1.29,0.58 a 10.1,10.1 0 0 0 -0.93,1.38 c -0.47,0.61 -0.36,2.13 -0.78,2.6 -0.74,0.85 -1.85,-0.3 -2,0.74 -0.15,1.04 -0.65,0.43 -0.76,1.36 -0.11,0.93 -1.88,0.27 -2.52,1 -0.64,0.73 -0.32,4.34 -1,4.82 -0.68,0.48 -1.34,3 -2.19,3.37 -0.85,0.37 -2.08,-0.76 -3,-0.6 -0.92,0.16 -2.74,1.09 -3.78,1.08 -3.15,-0.05 -3.15,-1.76 -3.83,-2.21 l 0.57,-4 c -4.8,-3.49 1.13,-5.32 0.72,-8.25 1.26,-0.94 -0.64,0.46 -2.32,-0.26 -2.61,-2.09 -1.11,-7.42 -0.2,-10 -0.56,-2.6 1.24,0.49 0.69,-1.27 -0.37,-1.22 -0.85,-2.85 -1.26,-4.4 -0.46,-1.76 3.08,1.06 3,0.18 a 2.4,2.4 0 0 1 2,-2.64 c 0.65,-0.18 -2.67,-2.91 -1.57,-1.26 z" transform="translate(101.56,-11.98)" fill="#2E7D32" fill-opacity="1" fill-rule="evenodd" />
              <path id="path43206" d="m 582.13,809.07 c -1,-3 -1.68,-1.91 -0.34,-2.61 l 2.37,0.41 c 0.4,-3.34 1.63,-2.21 2.57,-3.09 2.15,-2.94 2.49,-0.35 4,-0.52 a 5.86,5.86 0 0 1 2.79,-1.22 c 0.86,-0.87 1.58,-0.42 2.69,0.15 a 5.31,5.31 0 0 0 3.16,0.76 21.27,21.27 0 0 1 2.65,-0.37 c 2.48,-1.77 2.88,0.53 4.69,0.69 l 1.25,1.66 c 3.1,-1.08 0.65,0.1 0.56,0.94 0.75,0.55 2.82,-0.23 2.89,1.72 a 5.58,5.58 0 0 0 1.06,4 c 0.62,0.45 1.48,0.65 1.22,2.42 -0.34,2.3 0.73,1.54 1.21,2.43 0.48,0.89 2.72,1.43 1.57,3.13 l 0.2,2.24 c -0.08,1.41 2.41,3 2.13,4.14 0.66,1.32 1.76,7 -0.06,6.37 -6.21,6.36 -7.41,1.33 -4.89,-1.45 a 6.08,6.08 0 0 1 -1.41,1.59 c -0.82,0.61 -0.77,0.16 -0.66,-0.6 0.08,-0.47 -0.25,-0.58 -1,-0.14 -1.05,0.62 0,-0.5 -0.42,-0.2 -1.17,1.07 -1.45,0.91 -2.38,-0.17 a 3.28,3.28 0 0 1 -0.84,-3.28 c -1.47,0.11 -2.19,-0.38 -2.57,-1.13 0.37,-0.74 0,-1.35 -0.55,-1.92 -0.4,-1.27 -1.28,-1.09 -2.12,-1 -2.68,-0.34 -2.55,-0.72 -2.88,-1.89 -0.56,0.35 -1.41,-0.13 -1.94,0.58 -0.33,0.45 -0.58,0.06 -1,0.39 a 7.17,7.17 0 0 0 -0.7,0.94 c -0.36,0.41 -0.27,1.43 -0.59,1.75 -0.57,0.57 -1.41,-0.21 -1.54,0.5 -0.13,0.71 -0.49,0.28 -0.57,0.91 -0.08,0.63 -1.44,0.18 -1.92,0.65 -0.48,0.47 -0.25,2.92 -0.74,3.24 -0.49,0.32 -1,2 -1.67,2.27 -0.67,0.27 -1.58,-0.51 -2.29,-0.4 -0.71,0.11 -0.65,4.78 -1.44,4.77 -2.4,0 -4.31,2.14 -4.82,1.83 l -1.68,-3.8 c -3.65,-2.35 0,-4.93 -0.34,-6.9 1,-0.64 -2.33,-1.28 -3.6,-1.76 -2,-1.41 0.52,-5.39 1.21,-7.15 -0.42,-1.75 0.19,-3 -0.22,-4.18 -0.28,-0.82 4,-1.56 3.73,-2.61 -0.27,-1.05 0,-1.22 -0.07,-1.81 -0.09,-1.33 0.83,-1.23 1.31,-1.35 0.48,-0.12 0.56,-0.46 1.39,0.66 z" transform="translate(101.56,-11.98)" fill="#2E7D32" fill-opacity="1" fill-rule="evenodd" />
              <g id="g43224">
                <path id="path43208" d="m 582.71,815.13 c 0.74,-1.28 1,-0.32 3,0" transform="translate(101.56,-11.98)" fill="none" stroke="#1B5E20" stroke-linecap="square" stroke-linejoin="round" stroke-opacity="1" />
                <path id="path43210" d="m 592.92,829.77 c -0.68,0.26 -1.46,-0.75 -2.21,0 -0.47,0.48 -0.17,1.43 -0.67,1.73 -0.5,0.3 -1.1,-0.9 -1.47,-0.58 -0.37,0.32 -0.68,1.87 -1.1,2.19 -0.76,0.56 -1.44,-0.86 -1.77,0.07 -0.33,0.93 -0.79,1.53 -1,2.36" transform="translate(101.56,-11.98)" fill="none" stroke="#1B5E20" stroke-linecap="square" stroke-linejoin="round" stroke-opacity="1" />
                <path id="path43212" d="m 604.31,800 c -2.76,-2.5 -0.6,-1 -2.59,-0.74" transform="translate(101.56,-11.98)" fill="none" stroke="#1B5E20" stroke-linecap="square" stroke-linejoin="round" stroke-opacity="1" />
                <path id="path43214" d="m 620.45,824.58 c -0.48,-4.79 -1.54,-2.17 -2.59,-3.42" transform="translate(101.56,-11.98)" fill="none" stroke="#1B5E20" stroke-linecap="square" stroke-linejoin="round" stroke-opacity="1" />
                <path id="path43216" d="m 575.06,840.45 c 0.48,-4.79 1,-1.32 2.05,-2.57 m 0.85,-9.09 c 0.61,-0.85 0.2,-0.69 0.81,-0.71 1,-1.24 2,-1.61 3.25,-0.77" transform="translate(101.56,-11.98)" fill="none" stroke="#1B5E20" stroke-linecap="square" stroke-linejoin="round" stroke-opacity="1" />
                <path id="path43218" d="m 584.79,804.56 c -2.65,1 -2,1 -3,2.38 -0.76,1 -1,-0.74 -1,0.1 m 21.8,19.52 a 1.9,1.9 0 0 0 -1.85,-0.79 c -1,-1.24 -2,-1.61 -3.25,-0.77" transform="translate(101.56,-11.98)" fill="none" stroke="#1B5E20" stroke-linecap="square" stroke-linejoin="round" stroke-opacity="1" />
                <path id="path43220" d="m 613.58,824 c 0.74,-1.28 1,-0.32 3,-0.06" transform="translate(101.56,-11.98)" fill="none" stroke="#1B5E20" stroke-linecap="square" stroke-linejoin="round" stroke-opacity="1" />
                <path id="path43222" d="m 605.78,802.52 c 0.74,-1.28 1,-0.32 3,-0.06" transform="translate(101.56,-11.98)" fill="none" stroke="#1B5E20" stroke-linecap="square" stroke-linejoin="round" stroke-opacity="1" />
              </g>
            </g>
            <g id="g43354">
              <g id="g43260">
                <path id="path43228" d="m 592,831.69 c 0.6,-1 0.83,-0.25 2.42,0" transform="translate(101.56,-11.98)" fill="none" stroke="#1B5E20" stroke-linecap="square" stroke-linejoin="round" stroke-opacity="1" />
                <path id="path43230" d="m 598.07,812.81 c 0.59,1 0.82,0.25 2.42,0" transform="translate(101.56,-11.98)" fill="none" stroke="#1B5E20" stroke-linecap="square" stroke-linejoin="round" stroke-opacity="1" />
                <path id="path43232" d="m 594.63,818.3 c 0.59,-1 0.82,-0.25 2.41,0" transform="translate(101.56,-11.98)" fill="none" stroke="#1B5E20" stroke-linecap="square" stroke-linejoin="round" stroke-opacity="1" />
                <path id="path43234" d="m 601.7,810.7 c 0.59,-1 0.82,-0.24 2.42,0" transform="translate(101.56,-11.98)" fill="none" stroke="#1B5E20" stroke-linecap="square" stroke-linejoin="round" stroke-opacity="1" />
                <path id="path43236" d="m 608.72,820.61 c 0.59,-1 0.82,-0.24 2.42,0" transform="translate(101.56,-11.98)" fill="none" stroke="#1B5E20" stroke-linecap="square" stroke-linejoin="round" stroke-opacity="1" />
                <path id="path43238" d="m 613.55,826.41 c 0.51,0.23 0.41,0.46 1,0.57 0.59,0.11 0.46,2.42 1.15,2.4 m -3,-23.94 c -2.2,-2 -1,-0.06 -2.63,0.15" transform="translate(101.56,-11.98)" fill="none" stroke="#1B5E20" stroke-linecap="square" stroke-linejoin="round" stroke-opacity="1" />
                <path id="path43240" d="m 610.68,822.89 c 0.52,0.23 -0.15,0.28 0.47,0.39 0.62,0.11 -1.2,1.58 -0.5,1.56 m -2.37,-10.62 c -1.52,-1.46 -2.3,0.26 -3.12,0.12" transform="translate(101.56,-11.98)" fill="none" stroke="#1B5E20" stroke-linecap="square" stroke-linejoin="round" stroke-opacity="1" />
                <path id="path43242" d="m 614.68,818.34 c -0.49,-0.67 -0.15,-1.07 -0.64,-1.08 -0.77,-1 -0.21,-2.15 -1.18,-1.49 m -9.73,-0.29 c -2.21,-2 -1.57,0 -3.16,0.2" transform="translate(101.56,-11.98)" fill="none" stroke="#1B5E20" stroke-linecap="square" stroke-linejoin="round" stroke-opacity="1" />
                <path id="path43244" d="m 593.27,826.64 c -2.2,-2 -0.47,-0.78 -2.07,-0.58" transform="translate(101.56,-11.98)" fill="none" stroke="#1B5E20" stroke-linecap="square" stroke-linejoin="round" stroke-opacity="1" />
                <path id="path43246" d="m 615.88,815.06 c -0.38,-3.74 -1.23,-1.69 -2.07,-2.67" transform="translate(101.56,-11.98)" fill="none" stroke="#1B5E20" stroke-linecap="square" stroke-linejoin="round" stroke-opacity="1" />
                <path id="path43248" d="m 594.63,811.64 c 0.39,-3.75 0.8,-1 1.65,-2 m 0,-4.17 a 2.46,2.46 0 0 1 1.93,-0.75" transform="translate(101.56,-11.98)" fill="none" stroke="#1B5E20" stroke-linecap="square" stroke-linejoin="round" stroke-opacity="1" />
                <path id="path43250" d="m 592.2,818.26 c -0.61,0.81 -2.23,0 -2.29,0.64 m 14.46,-0.62 c -0.77,-1 -0.77,-1.66 -1.74,-1" transform="translate(101.56,-11.98)" fill="none" stroke="#1B5E20" stroke-linecap="square" stroke-linejoin="round" stroke-opacity="1" />
                <path id="path43252" d="m 603.51,820.67 c -2.21,-2 -0.48,-0.79 -2.07,-0.58" transform="translate(101.56,-11.98)" fill="none" stroke="#1B5E20" stroke-linecap="square" stroke-linejoin="round" stroke-opacity="1" />
                <path id="path43254" d="m 607.22,807.49 c -2.21,-2 -0.48,-0.78 -2.07,-0.58" transform="translate(101.56,-11.98)" fill="none" stroke="#1B5E20" stroke-linecap="square" stroke-linejoin="round" stroke-opacity="1" />
                <path id="path43256" d="m 597.94,822.25 c -2.2,-2 -0.48,-0.79 -2.07,-0.59" transform="translate(101.56,-11.98)" fill="none" stroke="#1B5E20" stroke-linecap="square" stroke-linejoin="round" stroke-opacity="1" />
                <path id="path43258" d="m 593.23,814.77 c -2.21,-2 -0.48,-0.79 -2.07,-0.58" transform="translate(101.56,-11.98)" fill="none" stroke="#1B5E20" stroke-linecap="square" stroke-linejoin="round" stroke-opacity="1" />
              </g>
              <g id="g43294">
                <path id="path43262" d="m 589.06,821.58 c -0.6,-1 -0.82,-0.25 -2.42,0" transform="translate(101.56,-11.98)" fill="none" stroke="#1B5E20" stroke-linecap="square" stroke-linejoin="round" stroke-opacity="1" />
                <path id="path43264" d="m 583,802.7 c -0.59,1 -0.82,0.25 -2.41,0" transform="translate(101.56,-11.98)" fill="none" stroke="#1B5E20" stroke-linecap="square" stroke-linejoin="round" stroke-opacity="1" />
                <path id="path43266" d="m 586.41,808.18 c -0.59,-1 -0.82,-0.24 -2.41,0" transform="translate(101.56,-11.98)" fill="none" stroke="#1B5E20" stroke-linecap="square" stroke-linejoin="round" stroke-opacity="1" />
                <path id="path43268" d="m 594.68,802.63 c -0.6,-1 -0.83,-0.25 -2.42,0" transform="translate(101.56,-11.98)" fill="none" stroke="#1B5E20" stroke-linecap="square" stroke-linejoin="round" stroke-opacity="1" />
                <path id="path43270" d="m 588.81,800.77 c -0.6,-1 -0.83,-0.25 -2.42,0" transform="translate(101.56,-11.98)" fill="none" stroke="#1B5E20" stroke-linecap="square" stroke-linejoin="round" stroke-opacity="1" />
                <path id="path43272" d="m 615.9,839 c -0.52,0.23 -0.41,0.46 -1,0.57 -0.59,0.11 -0.45,2.42 -1.15,2.4 m 3,-23.94 c 2.21,-2 1.05,-0.06 2.64,0.15" transform="translate(101.56,-11.98)" fill="none" stroke="#1B5E20" stroke-linecap="square" stroke-linejoin="round" stroke-opacity="1" />
                <path id="path43274" d="m 618.49,836.07 c 1.52,-1.46 2.3,0.26 3.12,0.12" transform="translate(101.56,-11.98)" fill="none" stroke="#1B5E20" stroke-linecap="square" stroke-linejoin="round" stroke-opacity="1" />
                <path id="path43276" d="m 607.4,829.43 c 0.5,-0.66 0.15,-1.07 0.65,-1.08 0.77,-1 0.21,-2.14 1.18,-1.49 m 9.73,-0.29 c 2.2,-2 1.56,0 3.15,0.2" transform="translate(101.56,-11.98)" fill="none" stroke="#1B5E20" stroke-linecap="square" stroke-linejoin="round" stroke-opacity="1" />
                <path id="path43278" d="m 587.77,816.53 c 2.2,-2 0.48,-0.78 2.07,-0.58" transform="translate(101.56,-11.98)" fill="none" stroke="#1B5E20" stroke-linecap="square" stroke-linejoin="round" stroke-opacity="1" />
                <path id="path43280" d="m 610.44,834.15 c 0.39,-3.75 1.23,-1.69 2.08,-2.68" transform="translate(101.56,-11.98)" fill="none" stroke="#1B5E20" stroke-linecap="square" stroke-linejoin="round" stroke-opacity="1" />
                <path id="path43282" d="m 601.25,809 c -0.39,-3.75 -0.8,-1 -1.64,-2 m 0,-4.16 a 2.49,2.49 0 0 0 -1.94,-0.75" transform="translate(101.56,-11.98)" fill="none" stroke="#1B5E20" stroke-linecap="square" stroke-linejoin="round" stroke-opacity="1" />
                <path id="path43284" d="m 589.66,806.86 c 0.61,0.82 2.23,0 2.29,0.65 m -14.46,-0.63 c 0.78,-1 0.77,-1.65 1.74,-1" transform="translate(101.56,-11.98)" fill="none" stroke="#1B5E20" stroke-linecap="square" stroke-linejoin="round" stroke-opacity="1" />
                <path id="path43286" d="m 577.53,810.56 c 2.21,-2 0.48,-0.79 2.07,-0.58" transform="translate(101.56,-11.98)" fill="none" stroke="#1B5E20" stroke-linecap="square" stroke-linejoin="round" stroke-opacity="1" />
                <path id="path43288" d="m 618.44,831.19 c 2.2,-2 0.47,-0.79 2.06,-0.58" transform="translate(101.56,-11.98)" fill="none" stroke="#1B5E20" stroke-linecap="square" stroke-linejoin="round" stroke-opacity="1" />
                <path id="path43290" d="m 583.1,812.14 c 2.21,-2 0.48,-0.79 2.07,-0.59" transform="translate(101.56,-11.98)" fill="none" stroke="#1B5E20" stroke-linecap="square" stroke-linejoin="round" stroke-opacity="1" />
                <path id="path43292" d="m 587.81,804.66 c 2.21,-2 0.48,-0.79 2.07,-0.58" transform="translate(101.56,-11.98)" fill="none" stroke="#1B5E20" stroke-linecap="square" stroke-linejoin="round" stroke-opacity="1" />
              </g>
              <path id="path43296" d="m 596.78,798.22 c -0.6,-1 -0.83,-0.25 -2.42,0" transform="translate(101.56,-11.98)" fill="none" stroke="#1B5E20" stroke-linecap="square" stroke-linejoin="round" stroke-opacity="1" />
              <path id="path43298" d="m 612.22,811.19 c -0.59,-1 -0.82,-0.24 -2.42,0" transform="translate(101.56,-11.98)" fill="none" stroke="#1B5E20" stroke-linecap="square" stroke-linejoin="round" stroke-opacity="1" />
              <path id="path43300" d="m 590.15,810.89 c -0.59,-1 -0.82,-0.25 -2.42,0" transform="translate(101.56,-11.98)" fill="none" stroke="#1B5E20" stroke-linecap="square" stroke-linejoin="round" stroke-opacity="1" />
              <path id="path43302" d="m 589.11,825.32 c -0.59,1 -0.82,0.25 -2.42,0" transform="translate(101.56,-11.98)" fill="none" stroke="#1B5E20" stroke-linecap="square" stroke-linejoin="round" stroke-opacity="1" />
              <path id="path43304" d="m 585.82,820 c -0.59,-1 -0.82,-0.25 -2.41,0" transform="translate(101.56,-11.98)" fill="none" stroke="#1B5E20" stroke-linecap="square" stroke-linejoin="round" stroke-opacity="1" />
              <path id="path43306" d="m 606.8,824.17 c -0.6,-1 -0.82,-0.25 -2.42,0" transform="translate(101.56,-11.98)" fill="none" stroke="#1B5E20" stroke-linecap="square" stroke-linejoin="round" stroke-opacity="1" />
              <path id="path43308" d="m 604.06,831.41 c -0.59,-1 -0.82,-0.24 -2.42,0" transform="translate(101.56,-11.98)" fill="none" stroke="#1B5E20" stroke-linecap="square" stroke-linejoin="round" stroke-opacity="1" />
              <path id="path43310" d="m 587.52,840.32 c -0.59,-1 -0.82,-0.25 -2.42,0" transform="translate(101.56,-11.98)" fill="none" stroke="#1B5E20" stroke-linecap="square" stroke-linejoin="round" stroke-opacity="1" />
              <path id="path43312" d="m 583.14,833.53 c -0.59,-1 -0.82,-0.25 -2.42,0" transform="translate(101.56,-11.98)" fill="none" stroke="#1B5E20" stroke-linecap="square" stroke-linejoin="round" stroke-opacity="1" />
              <path id="path43314" d="m 583.25,838.58 c -0.6,-1 -0.82,-0.25 -2.42,0" transform="translate(101.56,-11.98)" fill="none" stroke="#1B5E20" stroke-linecap="square" stroke-linejoin="round" stroke-opacity="1" />
              <path id="path43316" d="m 582.26,843.26 c -0.59,-1 -0.82,-0.25 -2.41,0" transform="translate(101.56,-11.98)" fill="none" stroke="#1B5E20" stroke-linecap="square" stroke-linejoin="round" stroke-opacity="1" />
              <path id="path43318" d="m 580,822.28 c -0.6,-1 -0.83,-0.24 -2.42,0" transform="translate(101.56,-11.98)" fill="none" stroke="#1B5E20" stroke-linecap="square" stroke-linejoin="round" stroke-opacity="1" />
              <path id="path43320" d="m 579.85,815.49 c -0.59,-1 -0.82,-0.24 -2.41,0" transform="translate(101.56,-11.98)" fill="none" stroke="#1B5E20" stroke-linecap="square" stroke-linejoin="round" stroke-opacity="1" />
              <path id="path43322" d="m 576.46,819.42 c -0.6,-1 -0.83,-0.25 -2.42,0" transform="translate(101.56,-11.98)" fill="none" stroke="#1B5E20" stroke-linecap="square" stroke-linejoin="round" stroke-opacity="1" />
              <path id="path43324" d="m 575.09,826.66 c -0.6,-1 -0.82,-0.25 -2.42,0" transform="translate(101.56,-11.98)" fill="none" stroke="#1B5E20" stroke-linecap="square" stroke-linejoin="round" stroke-opacity="1" />
              <path id="path43326" d="m 600.11,829.52 c -0.59,-1 -0.82,-0.24 -2.41,0" transform="translate(101.56,-11.98)" fill="none" stroke="#1B5E20" stroke-linecap="square" stroke-linejoin="round" stroke-opacity="1" />
              <path id="path43328" d="m 611.7,816.08 c -0.59,1 -0.82,0.25 -2.42,0" transform="translate(101.56,-11.98)" fill="none" stroke="#1B5E20" stroke-linecap="square" stroke-linejoin="round" stroke-opacity="1" />
              <path id="path43330" d="m 579.24,840.86 c -0.6,-1 -0.83,-0.25 -2.42,0" transform="translate(101.56,-11.98)" fill="none" stroke="#1B5E20" stroke-linecap="square" stroke-linejoin="round" stroke-opacity="1" />
              <path id="path43332" d="m 609.49,798.79 c -0.59,-1 -0.82,-0.25 -2.41,0" transform="translate(101.56,-11.98)" fill="none" stroke="#1B5E20" stroke-linecap="square" stroke-linejoin="round" stroke-opacity="1" />
              <path id="path43334" d="m 592.06,798.09 c -0.59,-1 -0.82,-0.24 -2.42,0" transform="translate(101.56,-11.98)" fill="none" stroke="#1B5E20" stroke-linecap="square" stroke-linejoin="round" stroke-opacity="1" />
              <path id="path43336" d="m 611.54,841.15 c -0.52,0.23 -0.41,0.47 -1,0.57 -0.59,0.1 0.73,1.46 0,1.43 m 1.79,-23 c 2.21,-2 1,-0.06 2.64,0.15" transform="translate(101.56,-11.98)" fill="none" stroke="#1B5E20" stroke-linecap="square" stroke-linejoin="round" stroke-opacity="1" />
              <path id="path43338" d="m 578.74,832.09 c -0.52,0.23 0.15,0.28 -0.48,0.39 -0.63,0.11 1.21,1.58 0.51,1.56 m 2.37,-10.62 c 1.52,-1.46 2.29,0.26 3.12,0.12" transform="translate(101.56,-11.98)" fill="none" stroke="#1B5E20" stroke-linecap="square" stroke-linejoin="round" stroke-opacity="1" />
              <path id="path43340" d="m 593.74,822.23 c 0.49,-0.67 0.15,-1.08 0.64,-1.09 0.77,-1 0.21,-2.14 1.19,-1.49 m 11.23,-0.81 c 2.2,-2 0.06,0.51 1.65,0.72" transform="translate(101.56,-11.98)" fill="none" stroke="#1B5E20" stroke-linecap="square" stroke-linejoin="round" stroke-opacity="1" />
              <path id="path43342" d="m 583.32,829.4 c 2.2,-2 0.47,-0.79 2.06,-0.58" transform="translate(101.56,-11.98)" fill="none" stroke="#1B5E20" stroke-linecap="square" stroke-linejoin="round" stroke-opacity="1" />
              <path id="path43344" d="m 580.7,820 c 0.39,-3.75 1.24,-1.7 2.08,-2.68" transform="translate(101.56,-11.98)" fill="none" stroke="#1B5E20" stroke-linecap="square" stroke-linejoin="round" stroke-opacity="1" />
              <path id="path43346" d="m 596.8,814.87 c -0.39,-3.75 -0.8,-1 -1.65,-2 m 0,-4.16 a 2.42,2.42 0 0 0 -1.93,-0.75" transform="translate(101.56,-11.98)" fill="none" stroke="#1B5E20" stroke-linecap="square" stroke-linejoin="round" stroke-opacity="1" />
              <path id="path43348" d="m 614.44,804.19 c 0.61,0.81 0.54,0.12 0.6,0.77 m -12.77,-0.75 c 0.78,-1 0.77,-1.66 1.74,-1" transform="translate(101.56,-11.98)" fill="none" stroke="#1B5E20" stroke-linecap="square" stroke-linejoin="round" stroke-opacity="1" />
              <path id="path43350" d="m 613.61,835.11 c 2.2,-2 0.47,-0.78 2.06,-0.58" transform="translate(101.56,-11.98)" fill="none" stroke="#1B5E20" stroke-linecap="square" stroke-linejoin="round" stroke-opacity="1" />
              <path id="path43352" d="m 614.19,808.85 c 2.2,-2 0.48,-0.79 2.07,-0.58" transform="translate(101.56,-11.98)" fill="none" stroke="#1B5E20" stroke-linecap="square" stroke-linejoin="round" stroke-opacity="1" />
            </g>
          </g>
        </g>
      </g>
    </g>
  </g>
</svg>